<svg width="626" height="626" viewBox="0 0 626 626" fill="none" xmlns="http://www.w3.org/2000/svg">
<g clip-path="url(#clip0_16_285)">
<path opacity="0.7" d="M551.776 107.735C551.776 107.735 481.251 30.4307 369.595 34.1286C257.939 37.8264 162.696 112.729 83.9556 171.334C5.21484 229.938 -15.8937 320.965 29.8794 392.03C75.6524 463.095 148.595 433.179 241.455 479.305C334.315 525.432 351.955 551.632 455.395 540.416C558.835 529.2 637.576 414.479 625.839 292.276C614.103 170.072 551.776 107.735 551.776 107.735Z" fill="#97C3F9" fill-opacity="0.2"/>
<path d="M626 478.765H0V479.078H626V478.765Z" fill="#EBEBEB"/>
<path d="M555.75 490.684H514.284V490.997H555.75V490.684Z" fill="#EBEBEB"/>
<path d="M227.025 494.928H164.6V495.241H227.025V494.928Z" fill="#EBEBEB"/>
<path d="M513.032 502.315H476.06V502.628H513.032V502.315Z" fill="#EBEBEB"/>
<path d="M92.7231 500.212H65.6799V500.525H92.7231V500.212Z" fill="#EBEBEB"/>
<path d="M151.905 500.212H103.866V500.525H151.905V500.212Z" fill="#EBEBEB"/>
<path d="M414.687 487.291H297.4V487.604H414.687V487.291Z" fill="#EBEBEB"/>
<path d="M296.724 422.926H54.9753C53.0815 422.922 51.2663 422.168 49.9284 420.827C48.5904 419.487 47.8389 417.671 47.8389 415.777V75.9463C47.8554 74.0633 48.6141 72.2629 49.9503 70.9361C51.2865 69.6093 53.0923 68.8632 54.9753 68.86H296.724C298.62 68.86 300.438 69.6132 301.779 70.9539C303.12 72.2946 303.873 74.1129 303.873 76.0089V415.777C303.873 417.673 303.12 419.491 301.779 420.832C300.438 422.172 298.62 422.926 296.724 422.926ZM54.9753 69.1104C53.1645 69.1137 51.429 69.8354 50.1497 71.117C48.8704 72.3986 48.1519 74.1355 48.1519 75.9463V415.777C48.1519 417.588 48.8704 419.324 50.1497 420.606C51.429 421.888 53.1645 422.609 54.9753 422.613H296.724C298.536 422.609 300.273 421.888 301.554 420.607C302.835 419.326 303.557 417.589 303.56 415.777V75.9463C303.557 74.1343 302.835 72.3975 301.554 71.1163C300.273 69.835 298.536 69.1137 296.724 69.1104H54.9753Z" fill="#EBEBEB"/>
<path d="M567.544 422.926H325.783C323.888 422.922 322.072 422.168 320.732 420.828C319.392 419.488 318.637 417.672 318.634 415.777V75.9463C318.654 74.0622 319.415 72.2618 320.753 70.9353C322.092 69.6088 323.899 68.8632 325.783 68.86H567.544C569.425 68.8665 571.227 69.614 572.561 70.9405C573.894 72.267 574.652 74.0655 574.668 75.9463V415.777C574.668 417.668 573.918 419.483 572.583 420.823C571.248 422.163 569.436 422.919 567.544 422.926ZM325.783 69.1104C323.971 69.1137 322.234 69.835 320.953 71.1163C319.672 72.3975 318.95 74.1343 318.947 75.9463V415.777C318.95 417.589 319.672 419.326 320.953 420.607C322.234 421.888 323.971 422.609 325.783 422.613H567.544C569.356 422.609 571.093 421.888 572.374 420.607C573.655 419.326 574.377 417.589 574.38 415.777V75.9463C574.377 74.1343 573.655 72.3975 572.374 71.1163C571.093 69.835 569.356 69.1137 567.544 69.1104H325.783Z" fill="#EBEBEB"/>
<path d="M136.105 268.742L475.66 268.742V102.902L136.105 102.902V268.742Z" fill="#E6E6E6"/>
<path d="M129.745 268.742L472.693 268.742V102.902L129.745 102.902V268.742Z" fill="#F0F0F0"/>
<path d="M136.105 280.561L475.66 280.561V268.742L136.105 268.742V280.561Z" fill="#E6E6E6"/>
<path d="M119.14 280.561L462.088 280.561V268.742L119.14 268.742V280.561Z" fill="#F0F0F0"/>
<path d="M463.791 259.853V111.816L138.646 111.816V259.853H463.791Z" fill="#FAFAFA"/>
<path d="M228.077 259.853L213.829 111.816H189.165L203.412 259.853H228.077Z" fill="white"/>
<path d="M417.943 259.853L403.682 111.816H379.018L393.278 259.853H417.943Z" fill="white"/>
<path d="M459.672 209.672C459.852 209.669 460.024 209.595 460.151 209.466C460.277 209.338 460.348 209.164 460.348 208.984V117.588C460.361 117.49 460.353 117.391 460.325 117.297C460.297 117.203 460.249 117.116 460.184 117.042C460.12 116.968 460.04 116.909 459.95 116.868C459.861 116.828 459.764 116.807 459.666 116.807C459.567 116.807 459.47 116.828 459.381 116.868C459.291 116.909 459.212 116.968 459.147 117.042C459.082 117.116 459.034 117.203 459.006 117.297C458.978 117.391 458.97 117.49 458.983 117.588V208.984C458.983 209.074 459.001 209.164 459.036 209.247C459.07 209.331 459.121 209.407 459.185 209.471C459.249 209.535 459.325 209.585 459.408 209.62C459.492 209.655 459.581 209.672 459.672 209.672Z" fill="#F0F0F0"/>
<path d="M198.117 259.853L183.856 111.816H174.241L188.501 259.853H198.117Z" fill="white"/>
<path d="M139.773 259.853V111.816H138.646V259.853H139.773Z" fill="#E6E6E6"/>
<path opacity="0.5" d="M127.641 127.954H467.196L468.01 115.272H128.455L127.641 127.954Z" fill="#E0E0E0"/>
<path opacity="0.5" d="M127.641 148.8H467.196L468.01 136.117H128.455L127.641 148.8Z" fill="#E0E0E0"/>
<path opacity="0.5" d="M127.641 169.646H467.196L468.01 156.963H128.455L127.641 169.646Z" fill="#E0E0E0"/>
<path opacity="0.5" d="M127.641 190.492H467.196L468.01 177.809H128.455L127.641 190.492Z" fill="#E0E0E0"/>
<path opacity="0.5" d="M127.641 211.338H467.196L468.01 198.655H128.455L127.641 211.338Z" fill="#E0E0E0"/>
<path opacity="0.5" d="M127.641 232.183H467.196L468.01 219.501H128.455L127.641 232.183Z" fill="#E0E0E0"/>
<path d="M331.329 478.765H352.688V335.987H331.329V478.765Z" fill="#E6E6E6"/>
<path d="M336.938 478.765H331.329V459.321H342.835L336.938 478.765Z" fill="#F0F0F0"/>
<path d="M528.307 478.765H549.666V335.987H528.307V478.765Z" fill="#E6E6E6"/>
<path d="M331.317 466.833H533.189V335.987H331.317V466.833Z" fill="#F0F0F0"/>
<path d="M335.674 377.653H528.832V341.771H335.674V377.653Z" fill="#E6E6E6"/>
<path d="M369.34 352.926H491.41C496.894 352.926 502.127 348.507 505.896 340.682H354.854C358.623 348.507 363.856 352.926 369.34 352.926Z" fill="#F0F0F0"/>
<path d="M527.58 478.765H533.202V459.321H521.696L527.58 478.765Z" fill="#F0F0F0"/>
<path d="M335.674 419.345H528.832V383.463H335.674V419.345Z" fill="#E6E6E6"/>
<path d="M369.34 394.618H491.41C496.894 394.618 502.127 390.186 505.896 382.373H354.854C358.623 390.186 363.856 394.618 369.34 394.618Z" fill="#F0F0F0"/>
<path d="M335.674 461.036H528.832V425.154H335.674V461.036Z" fill="#E6E6E6"/>
<path d="M369.34 436.297H491.41C496.894 436.297 502.127 431.865 505.896 424.052H354.854C358.623 431.865 363.856 436.297 369.34 436.297Z" fill="#F0F0F0"/>
<path d="M190.692 291.929H165.928C162.788 291.929 160.243 294.474 160.243 297.613V307.128C160.243 310.267 162.788 312.812 165.928 312.812H190.692C193.831 312.812 196.376 310.267 196.376 307.128V297.613C196.376 294.474 193.831 291.929 190.692 291.929Z" fill="#F5F5F5"/>
<path d="M235.902 291.929H211.137C207.998 291.929 205.453 294.474 205.453 297.613V307.128C205.453 310.267 207.998 312.812 211.137 312.812H235.902C239.041 312.812 241.586 310.267 241.586 307.128V297.613C241.586 294.474 239.041 291.929 235.902 291.929Z" fill="#F5F5F5"/>
<path d="M103.265 287.747C103.265 287.747 104.129 312.787 137.157 312.787C170.184 312.787 171.036 287.747 171.036 287.747H103.265Z" fill="#F0F0F0"/>
<path d="M245.304 470.602H281.662V320.7H245.304L245.304 470.602Z" fill="#F0F0F0"/>
<path d="M95.4024 478.765H274.689V470.602H95.4024V478.765Z" fill="#F0F0F0"/>
<path d="M245.304 320.687H88.4162V470.589H245.304V320.687Z" fill="#F5F5F5"/>
<path d="M231.019 378.367H102.714V412.922H231.019V378.367Z" fill="#F0F0F0"/>
<path d="M231.019 420.634H102.714V455.19H231.019V420.634Z" fill="#F0F0F0"/>
<path d="M151.805 382.999H181.916C182.682 382.996 183.415 382.69 183.957 382.149C184.499 381.607 184.804 380.873 184.808 380.107C184.808 379.339 184.503 378.602 183.961 378.058C183.419 377.513 182.684 377.206 181.916 377.203H151.805C151.037 377.206 150.301 377.513 149.759 378.058C149.217 378.602 148.913 379.339 148.913 380.107C148.916 380.873 149.222 381.607 149.764 382.149C150.305 382.69 151.039 382.996 151.805 382.999Z" fill="#F5F5F5"/>
<path d="M231.019 336.112H102.714V370.667H231.019V336.112Z" fill="#F0F0F0"/>
<path d="M151.805 340.744H181.916C182.684 340.741 183.419 340.434 183.961 339.889C184.503 339.345 184.808 338.608 184.808 337.84C184.804 337.074 184.499 336.34 183.957 335.798C183.415 335.257 182.682 334.951 181.916 334.948H151.805C151.039 334.951 150.305 335.257 149.764 335.798C149.222 336.34 148.916 337.074 148.913 337.84C148.913 338.608 149.217 339.345 149.759 339.889C150.301 340.434 151.037 340.741 151.805 340.744Z" fill="#F5F5F5"/>
<path d="M151.805 425.254H181.916C183.513 425.254 184.808 423.959 184.808 422.362V422.35C184.808 420.752 183.513 419.458 181.916 419.458H151.805C150.208 419.458 148.913 420.752 148.913 422.35V422.362C148.913 423.959 150.208 425.254 151.805 425.254Z" fill="#F5F5F5"/>
<path d="M83.571 320.687H245.304V312.8H83.571V320.687Z" fill="#F0F0F0"/>
<path d="M286.746 312.812H245.304V320.7H286.746V312.812Z" fill="#E6E6E6"/>
<path d="M487.98 229.354L479.003 215.757C479.316 294.458 480.643 298.99 480.605 312.537H487.804C488.806 246.644 491.585 246.256 487.98 229.354Z" fill="#E0E0E0"/>
<path d="M484.524 335.974C505.17 335.974 522.585 327.598 526.817 316.268C527.899 313.168 529.381 310.222 531.224 307.504L531.549 307.04H437.474L437.799 307.504C439.651 310.218 441.137 313.165 442.219 316.268C446.451 327.598 463.866 335.974 484.524 335.974Z" fill="#FAFAFA"/>
<path d="M437.286 309.845H531.737C533.012 309.842 534.251 309.416 535.259 308.635C536.267 307.853 536.987 306.76 537.308 305.526C537.526 304.676 537.546 303.788 537.368 302.929C537.19 302.07 536.818 301.263 536.28 300.57C535.743 299.876 535.054 299.315 534.267 298.928C533.479 298.542 532.614 298.34 531.737 298.339H437.286C436.408 298.338 435.541 298.538 434.753 298.924C433.964 299.309 433.274 299.871 432.736 300.565C432.198 301.259 431.827 302.067 431.649 302.927C431.472 303.786 431.495 304.676 431.715 305.526C432.032 306.762 432.751 307.858 433.76 308.64C434.769 309.422 436.01 309.846 437.286 309.845Z" fill="#F0F0F0"/>
<path d="M485.263 218.399C483.472 197.115 461.575 195.012 420.609 184.983C440.704 242.888 492.036 298.564 485.263 218.399Z" fill="#E0E0E0"/>
<path d="M479.328 207.219C476.298 190.317 479.466 172.4 526.904 174.153C515.023 220.69 493.426 285.694 479.328 207.219Z" fill="#E0E0E0"/>
<path d="M481.482 248.484C482.921 229.016 497.92 205.916 547.024 222.53C525.189 260.316 478.001 295.472 481.482 248.484Z" fill="#E0E0E0"/>
<path d="M313 535.305C447.067 535.305 555.75 528.96 555.75 521.132C555.75 513.305 447.067 506.96 313 506.96C178.933 506.96 70.2497 513.305 70.2497 521.132C70.2497 528.96 178.933 535.305 313 535.305Z" fill="#F5F5F5"/>
<path d="M168.707 345.852H322.34V337.564H168.707V345.852Z" fill="#0489C7"/>
<path opacity="0.5" d="M168.707 345.852H322.34V337.564H168.707V345.852Z" fill="white"/>
<path d="M168.707 337.564H98.3571V345.852H168.707V337.564Z" fill="#0489C7"/>
<path opacity="0.5" d="M168.707 337.564H98.3571V345.852H168.707V337.564Z" fill="white"/>
<path opacity="0.2" d="M168.707 337.564H98.3571V345.852H168.707V337.564Z" fill="black"/>
<path d="M103.115 354.692H317.607L319.448 345.852H101.262L103.115 354.692Z" fill="#0489C7"/>
<path opacity="0.6" d="M103.115 354.692H317.607L319.448 345.852H101.262L103.115 354.692Z" fill="black"/>
<path d="M295.334 354.692V516.488H290.489L284.379 354.692H295.334Z" fill="#0489C7"/>
<path opacity="0.5" d="M295.334 354.692V516.488H290.489L284.379 354.692H295.334Z" fill="white"/>
<path d="M238.068 354.692V516.488H233.223L227.113 354.692H238.068Z" fill="#0489C7"/>
<path opacity="0.5" d="M238.068 354.692V516.488H233.223L227.113 354.692H238.068Z" fill="white"/>
<path d="M113.919 354.692V516.488H118.765L124.874 354.692H113.919Z" fill="#0489C7"/>
<path opacity="0.5" d="M113.919 354.692V516.488H118.765L124.874 354.692H113.919Z" fill="white"/>
<path d="M171.186 354.692V516.488H176.031L182.141 354.692H171.186Z" fill="#0489C7"/>
<path opacity="0.5" d="M171.186 354.692V516.488H176.031L182.141 354.692H171.186Z" fill="white"/>
<path d="M497.432 233.548C500.174 238.894 502.691 244.228 505.107 249.686C507.523 255.145 509.764 260.666 511.83 266.35C512.318 267.803 512.844 269.205 513.295 270.695L513.646 271.797L513.833 272.348C513.833 272.535 514.021 272.999 514.096 273.312C514.369 274.544 514.461 275.809 514.372 277.068C514.189 279.087 513.686 281.065 512.882 282.927C512.222 284.518 511.431 286.05 510.516 287.509C507.12 292.8 502.946 297.549 498.133 301.594L493.513 297.363C496.616 292.787 499.342 287.968 501.664 282.952C502.155 281.824 502.573 280.666 502.916 279.484C503.182 278.6 503.296 277.677 503.254 276.755C503.256 276.558 503.208 276.365 503.116 276.191C503.116 276.191 503.116 276.254 503.054 276.104L502.866 275.615L502.478 274.639C501.977 273.387 501.388 272.035 500.838 270.72C498.584 265.474 496.143 260.228 493.651 254.982L486.139 239.27L497.432 233.548Z" fill="#FF8B7B"/>
<path d="M494.891 295.848L489.219 298.276L494.866 306.102C494.866 306.102 498.972 303.798 499.485 299.779L494.891 295.848Z" fill="#FF8B7B"/>
<path d="M481.544 302.183L487.792 308.042L494.866 306.101L489.219 298.276L481.544 302.183Z" fill="#FF8B7B"/>
<path d="M458.32 194.298C458.182 194.961 457.731 195.425 457.293 195.337C456.855 195.249 456.63 194.636 456.755 193.985C456.88 193.334 457.356 192.858 457.781 192.946C458.207 193.033 458.457 193.634 458.32 194.298Z" fill="#263238"/>
<path d="M457.794 195.437C456.594 197.296 455.145 198.981 453.487 200.445C453.87 200.863 454.339 201.192 454.863 201.408C455.386 201.624 455.951 201.723 456.517 201.697L457.794 195.437Z" fill="#ED847E"/>
<path d="M461.487 191.13C461.43 191.129 461.375 191.115 461.323 191.092C461.271 191.068 461.225 191.034 461.187 190.993C460.86 190.621 460.451 190.332 459.992 190.147C459.533 189.962 459.038 189.887 458.545 189.928C458.494 189.937 458.442 189.936 458.391 189.925C458.341 189.914 458.293 189.893 458.25 189.863C458.208 189.834 458.172 189.796 458.144 189.752C458.116 189.709 458.097 189.66 458.088 189.609C458.079 189.558 458.08 189.506 458.091 189.455C458.102 189.405 458.123 189.357 458.153 189.315C458.183 189.272 458.22 189.236 458.264 189.208C458.308 189.18 458.356 189.161 458.407 189.152C459.028 189.077 459.657 189.152 460.243 189.369C460.829 189.587 461.354 189.942 461.775 190.404C461.825 190.461 461.857 190.531 461.869 190.606C461.881 190.681 461.871 190.757 461.841 190.827C461.81 190.896 461.761 190.956 461.699 190.998C461.636 191.041 461.563 191.065 461.487 191.068V191.13Z" fill="#263238"/>
<path d="M477.112 203.575C475.86 209.685 474.721 220.865 478.99 224.947C478.99 224.947 477.325 231.132 465.982 231.132C453.462 231.132 460.022 224.947 460.022 224.947C466.821 223.319 466.645 218.261 465.469 213.516L477.112 203.575Z" fill="#FF8B7B"/>
<path d="M481.92 226.887C482.834 224.934 483.86 222.693 481.569 222.092C479.065 221.429 465.356 221.141 460.698 222.743C456.041 224.346 457.531 228.177 457.531 228.177L481.92 226.887Z" fill="#0489C7"/>
<path d="M456.792 512.068C455.728 512.068 454.689 511.918 454.288 511.429C454.201 511.302 454.154 511.152 454.154 510.998C454.154 510.843 454.201 510.693 454.288 510.566C454.357 510.451 454.448 510.351 454.555 510.272C454.662 510.192 454.784 510.135 454.914 510.102C456.304 509.727 459.221 511.354 459.334 511.467C459.37 511.485 459.399 511.515 459.417 511.551C459.435 511.587 459.441 511.628 459.434 511.667C459.428 511.706 459.41 511.742 459.383 511.771C459.357 511.8 459.322 511.821 459.284 511.83C458.461 511.977 457.628 512.057 456.792 512.068ZM455.478 510.44C455.349 510.42 455.218 510.42 455.089 510.44C455.009 510.456 454.933 510.489 454.866 510.536C454.799 510.584 454.743 510.645 454.701 510.716C454.564 510.966 454.614 511.079 454.701 511.154C455.089 511.692 457.205 511.705 458.745 511.48C457.729 510.946 456.62 510.61 455.478 510.49V510.44Z" fill="#0489C7"/>
<path d="M459.321 511.88H459.234C458.232 511.43 456.229 509.614 456.379 508.675C456.379 508.45 456.579 508.174 457.118 508.124C457.315 508.104 457.514 508.123 457.703 508.181C457.892 508.239 458.068 508.335 458.219 508.462C458.969 509.374 459.407 510.501 459.471 511.68C459.476 511.713 459.471 511.747 459.458 511.778C459.445 511.809 459.423 511.835 459.396 511.855L459.321 511.88ZM457.28 508.5H457.155C456.805 508.5 456.78 508.675 456.78 508.725C456.68 509.289 458.032 510.716 459.071 511.329C458.97 510.379 458.586 509.481 457.969 508.75C457.774 508.592 457.532 508.503 457.28 508.5Z" fill="#0489C7"/>
<path d="M468.498 511.68H460.148L459.321 492.362H467.66L468.498 511.68Z" fill="#FF8B7B"/>
<path d="M528.644 502.478L520.344 503.379L514.084 484.612L522.384 483.71L528.644 502.478Z" fill="#FF8B7B"/>
<path d="M516.55 505.27C515.511 505.545 514.472 505.658 514.046 505.27C513.929 505.168 513.847 505.033 513.811 504.882C513.775 504.732 513.787 504.574 513.846 504.431C513.883 504.301 513.947 504.181 514.033 504.078C514.12 503.975 514.226 503.89 514.347 503.83C515.599 503.116 518.829 504.005 518.966 504.043C519.006 504.054 519.041 504.077 519.067 504.108C519.094 504.139 519.111 504.177 519.117 504.218C519.119 504.259 519.11 504.299 519.09 504.335C519.07 504.37 519.04 504.399 519.004 504.418C518.215 504.779 517.393 505.064 516.55 505.27ZM514.872 504.018C514.747 504.052 514.626 504.098 514.509 504.155C514.437 504.192 514.374 504.244 514.322 504.306C514.27 504.369 514.232 504.441 514.209 504.518C514.134 504.794 514.209 504.894 514.272 504.957C514.785 505.382 516.838 504.869 518.278 504.281C517.17 503.976 516.013 503.891 514.872 504.03V504.018Z" fill="#0489C7"/>
<path d="M518.941 504.431C518.941 504.431 518.879 504.431 518.854 504.431C517.765 504.243 515.386 502.991 515.311 502.039C515.311 501.814 515.373 501.501 515.887 501.313C516.067 501.236 516.26 501.197 516.456 501.197C516.652 501.197 516.846 501.236 517.026 501.313C518.278 501.902 519.042 504.018 519.079 504.105C519.098 504.135 519.108 504.17 519.108 504.205C519.108 504.241 519.098 504.276 519.079 504.306L518.941 504.431ZM516.137 501.651H516.012C515.686 501.777 515.699 501.914 515.699 501.964C515.699 502.528 517.414 503.567 518.566 503.917C518.243 503.02 517.648 502.245 516.863 501.701C516.636 501.594 516.377 501.576 516.137 501.651Z" fill="#0489C7"/>
<path d="M519.868 502.603L528.87 499.986C529.029 499.938 529.199 499.947 529.352 500.011C529.505 500.075 529.631 500.19 529.709 500.337L533.352 507.06C533.435 507.224 533.48 507.404 533.486 507.587C533.491 507.771 533.456 507.953 533.384 508.121C533.311 508.29 533.202 508.44 533.064 508.562C532.927 508.683 532.764 508.773 532.588 508.825C529.433 509.689 527.856 509.952 523.899 511.091C521.458 511.805 516.513 513.52 513.145 514.497C509.777 515.473 508.375 512.268 509.664 511.567C515.448 508.425 517.239 505.883 518.691 503.542C518.949 503.09 519.37 502.754 519.868 502.603Z" fill="#263238"/>
<path d="M460.198 510.716H469.312C469.479 510.715 469.641 510.772 469.771 510.877C469.901 510.982 469.991 511.128 470.026 511.292L471.678 518.704C471.714 518.887 471.708 519.075 471.661 519.256C471.614 519.437 471.528 519.604 471.408 519.747C471.288 519.89 471.137 520.004 470.968 520.081C470.798 520.159 470.613 520.197 470.426 520.193C467.134 520.131 462.389 519.943 458.257 519.943C453.424 519.943 450.745 520.206 445.124 520.206C441.693 520.206 440.754 516.738 442.181 516.45C448.717 515.023 452.498 514.872 458.144 511.442C458.745 511.009 459.458 510.757 460.198 510.716Z" fill="#263238"/>
<path d="M454.188 240.071C453.086 243.001 451.897 245.567 450.62 248.247C449.343 250.926 447.978 253.492 446.513 256.072C443.546 261.361 440.015 266.314 435.984 270.845C435.446 271.421 434.895 271.997 434.319 272.56C434.043 272.836 433.755 273.124 433.455 273.399L432.478 274.288C431.543 275.128 430.424 275.737 429.211 276.066C428.325 276.299 427.401 276.354 426.494 276.229C426.042 276.17 425.597 276.066 425.167 275.916C424.788 275.781 424.419 275.618 424.065 275.427C423.109 274.9 422.276 274.175 421.624 273.299C421.208 272.765 420.847 272.19 420.547 271.584C419.76 269.931 419.172 268.191 418.794 266.401C418.456 264.823 418.231 263.321 418.03 261.831C417.345 256.014 417.178 250.149 417.529 244.303L423.789 243.852C425.041 249.248 426.293 254.757 427.696 259.865C428.046 261.117 428.459 262.369 428.873 263.521C429.176 264.471 429.597 265.379 430.125 266.225C430.2 266.325 430.275 266.376 430.225 266.225C430 265.909 429.698 265.655 429.348 265.487C429.152 265.377 428.947 265.285 428.735 265.211C428.471 265.117 428.199 265.049 427.921 265.011C427.365 264.936 426.801 264.966 426.256 265.098C425.718 265.229 425.215 265.472 424.779 265.812L425.317 265.211C425.53 264.998 425.73 264.773 425.93 264.535C426.331 264.084 426.719 263.596 427.107 263.12C430.282 258.968 433.085 254.544 435.483 249.899C436.735 247.545 437.987 245.117 439.126 242.688C440.266 240.259 441.418 237.68 442.419 235.401L454.188 240.071Z" fill="#FF8B7B"/>
<path d="M493.939 226.825C501.764 228.628 509.664 251.489 509.664 251.489L493.563 263.045C493.563 263.045 489.069 252.391 484.637 243.076C480.004 233.31 485.939 224.997 493.939 226.825Z" fill="#263238"/>
<path d="M447.177 227.263C447.177 227.263 438.3 237.279 446.689 299.391H491.322C491.635 292.542 487.328 259.114 493.939 226.775C489.002 225.828 484.008 225.201 478.99 224.897C472.673 224.527 466.34 224.527 460.022 224.897C455.685 225.35 451.391 226.141 447.177 227.263Z" fill="#263238"/>
<path d="M458.232 235.714C461.036 243.226 448.216 263.108 448.216 263.108L429.161 251.652C434.013 246.123 438.179 240.027 441.568 233.498C447.74 220.652 455.978 229.667 458.232 235.714Z" fill="#263238"/>
<path d="M419.67 248.009L411.67 244.641L415.839 238.118C415.839 238.118 421.511 238.719 423.602 242.45C423.9 242.994 423.986 243.629 423.843 244.233C423.699 244.837 423.337 245.366 422.825 245.718L419.67 248.009Z" fill="#FF8B7B"/>
<path d="M405.172 239.758L412.158 235.138L415.839 238.118L411.67 244.641L405.172 239.758Z" fill="#FF8B7B"/>
<path opacity="0.2" d="M459.321 492.362L459.747 502.327H468.098L467.672 492.362H459.321Z" fill="black"/>
<path opacity="0.2" d="M522.384 483.723L514.084 484.624L517.564 495.028L525.615 493.388L522.384 483.723Z" fill="black"/>
<path d="M480.605 197.365C478.464 205.366 477.613 210.161 472.68 213.491C465.256 218.499 456.003 212.752 455.715 204.276C455.453 196.639 459.008 184.833 467.597 183.23C469.488 182.859 471.443 182.98 473.274 183.58C475.105 184.18 476.752 185.239 478.057 186.657C479.362 188.075 480.281 189.804 480.728 191.679C481.174 193.554 481.132 195.511 480.605 197.365Z" fill="#FF8B7B"/>
<path d="M485.839 192.658C486.94 192.921 489.181 192.758 491.197 188.201C493.989 181.941 481.732 183.693 481.732 183.693C481.732 183.693 493 178.585 483.385 173.677C477.125 170.485 474.771 173.44 473.92 175.868C474.17 173.364 473.556 170.034 467.81 171.799C459.046 174.479 465.368 181.415 465.368 181.415C464.446 180.757 463.322 180.443 462.192 180.527C461.062 180.612 459.998 181.09 459.184 181.878C456.379 184.382 458.583 187.925 461.287 191.08C459.672 193.359 458.971 196.088 463.303 197.102C464.077 197.244 464.778 197.649 465.287 198.25C465.796 198.85 466.081 199.608 466.095 200.395C466.095 204.664 466.257 208.145 469.225 210.874C472.192 213.604 482.533 209.71 482.007 203.613C484.526 203.345 486.922 202.387 488.931 200.846C494.265 196.677 488.005 193.547 485.839 192.658Z" fill="#263238"/>
<path d="M469.2 197.503C468.345 199.376 466.897 200.916 465.08 201.885C462.677 203.137 461.324 201.309 461.875 198.905C462.364 196.739 464.204 193.484 466.671 193.221C469.137 192.958 470.189 195.237 469.2 197.503Z" fill="#FF8B7B"/>
<path d="M462.526 299.391C462.526 299.391 471.992 363.18 477.187 387.031C482.884 413.198 512.832 493.313 512.832 493.313L527.856 490.546C527.856 490.546 505.47 415.313 502.215 389.41C498.697 361.29 491.31 299.353 491.31 299.353L462.526 299.391Z" fill="#0489C7"/>
<path opacity="0.2" d="M468.511 322.115C479.516 324.268 478.264 365.108 477.012 386.117C473.844 371.268 469.225 342.697 466.07 322.415C466.827 322.044 467.686 321.938 468.511 322.115Z" fill="black"/>
<path d="M446.689 299.391C446.689 299.391 445.537 361.79 446.451 387.244C447.39 413.711 456.629 500.399 456.629 500.399H470.752C470.752 500.399 471.265 415.263 471.891 389.259C472.58 360.927 476.01 299.391 476.01 299.391H446.689Z" fill="#0489C7"/>
<path d="M509.414 488.28C509.351 488.28 512.03 493.764 512.03 493.764L528.945 490.659L527.693 485.563L509.414 488.28Z" fill="#263238"/>
<path d="M453.913 494.765C453.85 494.765 454.714 500.637 454.714 500.637H471.916L472.38 495.391L453.913 494.765Z" fill="#263238"/>
<path d="M312.249 511.317H321.213L321.151 490.584H312.199L312.249 511.317Z" fill="#7F3E3B"/>
<path d="M264.673 511.317H273.625L276.592 490.584H267.628L264.673 511.317Z" fill="#7F3E3B"/>
<path d="M274.188 510.29H264.172C263.998 510.286 263.829 510.346 263.697 510.459C263.565 510.573 263.48 510.731 263.458 510.904L262.282 518.854C262.259 519.055 262.278 519.259 262.34 519.452C262.401 519.645 262.502 519.823 262.637 519.974C262.772 520.125 262.937 520.246 263.121 520.33C263.306 520.413 263.506 520.456 263.709 520.456C267.227 520.394 268.917 520.181 273.337 520.181C276.066 520.181 281.688 520.469 285.444 520.469C289.2 520.469 289.425 516.713 287.86 516.412C280.849 514.91 278.094 512.819 275.728 510.841C275.301 510.472 274.752 510.276 274.188 510.29Z" fill="#263238"/>
<path d="M321.1 510.29H311.322C311.146 510.288 310.975 510.348 310.84 510.461C310.704 510.573 310.613 510.73 310.584 510.904L309.244 518.854C309.212 519.043 309.22 519.236 309.267 519.421C309.314 519.607 309.399 519.78 309.517 519.931C309.634 520.082 309.782 520.207 309.951 520.297C310.12 520.387 310.305 520.442 310.496 520.456C314.014 520.394 319.11 520.181 323.542 520.181C328.725 520.181 333.22 520.469 339.292 520.469C342.973 520.469 343.824 516.713 342.272 516.412C335.198 514.885 329.464 514.722 323.241 510.979C322.601 510.565 321.862 510.328 321.1 510.29Z" fill="#263238"/>
<path d="M314.252 228.039L326.484 224.12C326.484 224.12 337.752 255.02 341.007 258.288C345.414 262.732 351.724 274.564 355.205 281.124C354.804 282.589 352.701 285.994 351.449 286.633C342.823 280.448 331.354 268.654 328.913 263.458C323.354 251.652 314.252 228.039 314.252 228.039Z" fill="#7F3E3B"/>
<path d="M311.423 221.304C307.316 228.816 321.789 254.031 321.789 254.031L340.056 245.567C340.056 245.567 335.874 233.786 331.004 223.695C326.371 214.092 315.98 212.99 311.423 221.304Z" fill="#0489C7"/>
<path d="M354.429 279.872L363.643 285.469L356.82 294.833C353.974 291.949 351.584 288.648 349.734 285.043L354.429 279.872Z" fill="#7F3E3B"/>
<path d="M370.392 293.356L364.445 297.638L356.833 294.833L363.643 285.469L370.392 293.356Z" fill="#7F3E3B"/>
<path opacity="0.2" d="M321.151 490.584L321.176 501.276H312.224L312.186 490.584H321.151Z" fill="black"/>
<path opacity="0.2" d="M267.628 490.584H276.592L275.064 501.276H266.1L267.628 490.584Z" fill="black"/>
<path d="M323.129 216.22C323.129 216.22 334.397 247.007 325.558 297.375H277.656C277.143 290.013 280.886 250.413 272.936 215.77C278.215 214.746 283.556 214.068 288.924 213.741C295.708 213.347 302.51 213.347 309.294 213.741C313.962 214.214 318.587 215.043 323.129 216.22Z" fill="#0489C7"/>
<path d="M297.888 216.396C297.888 216.396 305.976 226.938 304.274 297.375H313.163C313.163 297.375 316.531 237.079 306.602 215.782C303.686 215.742 300.771 215.947 297.888 216.396Z" fill="white"/>
<path opacity="0.2" d="M283.553 224.321C284.492 230.017 283.027 243.664 277.982 259.377C277.736 245.872 276.299 232.415 273.687 219.163V219.1C276.83 218.825 282.664 218.975 283.553 224.321Z" fill="black"/>
<path d="M291.115 194.699C292.567 201.246 293.406 209.372 288.924 213.741C288.924 213.741 291.716 220.39 303.948 220.39C315.078 220.39 309.344 213.741 309.344 213.741C301.995 212.001 302.145 202.962 303.297 197.866L291.115 194.699Z" fill="#7F3E3B"/>
<path d="M288.924 213.178C292.909 216.748 297.755 219.22 302.984 220.352C300.843 221.804 298.089 227.013 298.089 227.013C298.089 227.013 287.747 223.069 285.719 213.654C286.708 213.441 288.924 213.178 288.924 213.178Z" fill="#0489C7"/>
<path opacity="0.3" d="M288.924 213.178C292.909 216.748 297.755 219.22 302.984 220.352C300.843 221.804 298.089 227.013 298.089 227.013C298.089 227.013 287.747 223.069 285.719 213.654C286.708 213.441 288.924 213.178 288.924 213.178Z" fill="black"/>
<path d="M308.355 212.928C308.355 212.928 311.197 218.9 305.989 220.289C308.577 221.592 310.746 223.597 312.249 226.074C312.249 226.074 315.93 218.724 311.51 213.428C310.559 213.191 308.355 212.928 308.355 212.928Z" fill="#0489C7"/>
<path opacity="0.3" d="M308.355 212.928C308.355 212.928 311.197 218.9 305.989 220.289C308.577 221.592 310.746 223.597 312.249 226.074C312.249 226.074 315.93 218.724 311.51 213.428C310.559 213.191 308.355 212.928 308.355 212.928Z" fill="black"/>
<path opacity="0.2" d="M303.259 197.879C302.354 201.422 302.463 205.148 303.572 208.633C302.532 209.128 301.369 209.302 300.23 209.134C297.55 208.596 295.935 207.369 293.707 202.874C293.519 201.722 291.365 195.85 291.128 194.749L303.259 197.879Z" fill="black"/>
<path d="M313.063 187.988C313.179 189.078 313.076 190.181 312.757 191.231C312.439 192.281 311.913 193.256 311.21 194.098C309.319 196.326 306.665 195.012 305.776 192.345C304.962 189.953 304.975 185.897 307.566 184.645C308.143 184.38 308.777 184.261 309.411 184.297C310.045 184.334 310.66 184.526 311.203 184.856C311.745 185.186 312.198 185.644 312.523 186.19C312.847 186.736 313.032 187.353 313.063 187.988Z" fill="#7F3E3B"/>
<path opacity="0.2" d="M313.063 187.988C313.179 189.078 313.076 190.181 312.757 191.231C312.439 192.281 311.913 193.256 311.21 194.098C309.319 196.326 306.665 195.012 305.776 192.345C304.962 189.953 304.975 185.897 307.566 184.645C308.143 184.38 308.777 184.261 309.411 184.297C310.045 184.334 310.66 184.526 311.203 184.856C311.745 185.186 312.198 185.644 312.523 186.19C312.847 186.736 313.032 187.353 313.063 187.988Z" fill="black"/>
<path d="M285.093 187.662C288.749 195.85 289.287 200.445 294.683 203.938C302.809 209.234 312.487 202.937 312.474 193.797C312.474 185.584 308.217 173.064 299.003 171.261C288.924 169.371 280.448 177.208 285.093 187.662Z" fill="#7F3E3B"/>
<path d="M283.703 195.312C285.063 196.957 286.923 198.113 288.999 198.605C291.503 199.131 291.941 196.689 290.489 194.285C289.174 192.119 286.858 187.913 284.066 189.816C282.213 191.13 281.913 193.259 283.703 195.312Z" fill="#7F3E3B"/>
<path d="M313.275 193.847C313.551 199.381 319.085 206.367 309.156 207.957C303.974 208.774 298.673 207.636 294.283 204.765C289.938 202.073 288.649 194.486 285.281 189.403C285.131 189.215 285.206 188.989 285.381 188.764C285.583 188.533 285.839 188.355 286.125 188.244C286.411 188.133 286.72 188.094 287.025 188.128C287.33 188.162 287.622 188.27 287.877 188.442C288.131 188.614 288.34 188.845 288.486 189.115C289.613 191.08 291.716 193.947 294.546 194.123C298.877 194.461 313 188.188 313.275 193.847Z" fill="#263238"/>
<path d="M294.07 297.375C294.07 297.375 295.322 308.643 296.787 323.905C298.539 341.195 300.705 363.656 302.083 380.771C302.076 380.846 302.076 380.921 302.083 380.996C302.345 384.251 302.571 387.256 302.771 390.086C304.712 417.993 309.231 499.21 309.231 499.21H324.406C324.406 499.21 330.29 416.328 330.015 387.92C329.764 360.576 325.52 297.375 325.52 297.375H294.07Z" fill="#263238"/>
<path d="M307.992 493.876C307.917 493.876 308.217 499.523 308.217 499.523H325.745L326.221 493.175L307.992 493.876Z" fill="#0489C7"/>
<path opacity="0.2" d="M296.787 323.905C298.539 341.195 300.705 363.656 302.083 380.771C302.076 380.846 302.076 380.921 302.083 380.996C305.45 364.783 308.53 350.009 305.225 325.908L296.787 323.905Z" fill="black"/>
<path d="M308.555 297.375C308.555 297.375 303.335 362.091 299.666 387.732C295.647 415.814 279.083 499.16 279.083 499.16H262.67C262.67 499.16 271.571 418.03 272.986 390.236C274.526 360.063 277.644 297.337 277.644 297.337L308.555 297.375Z" fill="#263238"/>
<path d="M262.206 493.701C262.144 493.701 261.881 499.523 261.881 499.523H279.91L281.162 493.526L262.206 493.701Z" fill="#0489C7"/>
<path d="M299.228 186.31C299.403 187.011 299.904 187.562 300.367 187.412C300.831 187.262 301.056 186.648 300.893 185.947C300.73 185.246 300.217 184.695 299.754 184.845C299.291 184.996 299.065 185.596 299.228 186.31Z" fill="#263238"/>
<path d="M307.141 184.582C307.316 185.296 307.817 185.834 308.28 185.684C308.743 185.534 308.969 184.933 308.806 184.219C308.643 183.506 308.13 182.967 307.667 183.118C307.203 183.268 306.978 183.869 307.141 184.582Z" fill="#263238"/>
<path d="M304.712 185.484C306.061 187.467 307.67 189.26 309.494 190.817C309.097 191.268 308.604 191.624 308.052 191.86C307.5 192.096 306.902 192.206 306.302 192.182L304.712 185.484Z" fill="#630F0F"/>
<path d="M304.737 197.027C304.764 197.02 304.79 197.007 304.812 196.99C304.834 196.973 304.853 196.952 304.867 196.927C304.881 196.903 304.89 196.876 304.893 196.848C304.897 196.82 304.895 196.791 304.887 196.764C304.87 196.711 304.833 196.666 304.785 196.638C304.736 196.611 304.679 196.602 304.624 196.614C303.753 196.847 302.839 196.872 301.956 196.687C301.073 196.503 300.246 196.113 299.541 195.55C299.522 195.531 299.5 195.515 299.475 195.505C299.45 195.494 299.424 195.489 299.397 195.489C299.37 195.489 299.344 195.494 299.319 195.505C299.294 195.515 299.272 195.531 299.253 195.55C299.232 195.569 299.215 195.592 299.203 195.618C299.191 195.644 299.185 195.672 299.185 195.7C299.185 195.729 299.191 195.757 299.203 195.783C299.215 195.808 299.232 195.832 299.253 195.85C300.007 196.47 300.898 196.9 301.852 197.105C302.806 197.31 303.795 197.283 304.737 197.027Z" fill="#7F3E3B"/>
<path d="M296.236 184.244C296.299 184.229 296.357 184.2 296.407 184.159C296.457 184.117 296.497 184.065 296.524 184.006C296.719 183.516 297.031 183.081 297.432 182.738C297.833 182.396 298.312 182.156 298.827 182.041C298.888 182.038 298.948 182.023 299.002 181.995C299.056 181.968 299.104 181.929 299.141 181.881C299.179 181.834 299.207 181.779 299.222 181.72C299.237 181.661 299.239 181.6 299.228 181.54C299.209 181.428 299.148 181.328 299.057 181.26C298.966 181.192 298.852 181.162 298.74 181.177C298.078 181.311 297.46 181.612 296.946 182.049C296.431 182.487 296.036 183.049 295.798 183.681C295.754 183.784 295.752 183.9 295.792 184.005C295.831 184.11 295.91 184.195 296.01 184.244C296.085 184.261 296.161 184.261 296.236 184.244Z" fill="#263238"/>
<path d="M310.033 180.977C310.092 180.953 310.147 180.919 310.196 180.876C310.275 180.797 310.32 180.689 310.32 180.576C310.32 180.463 310.275 180.355 310.196 180.275C309.756 179.763 309.201 179.361 308.577 179.104C307.952 178.848 307.275 178.743 306.602 178.798C306.491 178.817 306.392 178.878 306.326 178.97C306.26 179.061 306.234 179.175 306.252 179.286C306.273 179.397 306.335 179.496 306.425 179.563C306.516 179.63 306.628 179.661 306.74 179.649C307.274 179.608 307.81 179.695 308.304 179.902C308.799 180.108 309.236 180.43 309.582 180.839C309.637 180.901 309.708 180.947 309.788 180.971C309.868 180.996 309.952 180.997 310.033 180.977Z" fill="#263238"/>
<path d="M267.753 227.488L279.634 232.985C279.634 232.985 268.178 262.181 270.132 266.3C272.798 271.922 274.889 284.404 279.234 290.439C279.008 291.904 277.255 295.447 276.091 296.186C266.588 291.065 257.211 272.398 256.698 266.789C255.521 254.006 267.753 227.488 267.753 227.488Z" fill="#7F3E3B"/>
<path d="M272.936 215.77C264.498 217.022 255.508 246.356 255.508 246.356L276.054 255.408C276.054 255.408 281.062 242.45 284.667 232.071C288.448 221.216 282.001 214.443 272.936 215.77Z" fill="#0489C7"/>
<path d="M277.268 511.855C277.868 511.903 278.466 511.739 278.958 511.392C279.11 511.253 279.222 511.078 279.283 510.882C279.345 510.686 279.354 510.478 279.309 510.278C279.304 510.15 279.264 510.026 279.194 509.92C279.123 509.814 279.024 509.73 278.908 509.677C277.881 509.163 275.152 510.929 274.814 511.141C274.781 511.165 274.754 511.197 274.739 511.235C274.723 511.273 274.719 511.314 274.726 511.354C274.738 511.396 274.76 511.434 274.791 511.465C274.822 511.496 274.86 511.518 274.902 511.53C275.676 511.725 276.47 511.834 277.268 511.855ZM278.457 510.002C278.552 509.981 278.65 509.981 278.745 510.002C278.79 510.028 278.827 510.064 278.853 510.108C278.879 510.152 278.894 510.201 278.896 510.253C278.924 510.39 278.917 510.532 278.875 510.665C278.834 510.799 278.759 510.92 278.658 511.016C277.664 511.484 276.526 511.543 275.49 511.179C276.389 510.589 277.398 510.188 278.457 510.002Z" fill="#0489C7"/>
<path d="M274.952 511.53C274.984 511.541 275.02 511.541 275.052 511.53C275.941 511.029 277.556 509.026 277.318 508.074C277.277 507.915 277.185 507.774 277.056 507.672C276.927 507.57 276.769 507.514 276.604 507.511C276.445 507.489 276.283 507.502 276.129 507.55C275.976 507.598 275.835 507.678 275.715 507.786C274.739 508.637 274.726 511.217 274.726 511.329C274.727 511.369 274.737 511.409 274.757 511.444C274.777 511.479 274.805 511.508 274.839 511.53H274.952ZM276.492 507.899H276.579C276.867 507.899 276.892 508.062 276.905 508.112C277.068 508.7 276.041 510.19 275.165 510.879C275.15 509.878 275.447 508.898 276.016 508.074C276.146 507.957 276.317 507.895 276.492 507.899Z" fill="#0489C7"/>
<path d="M324.894 511.855C325.654 511.927 326.415 511.732 327.047 511.304C327.188 511.174 327.293 511.011 327.354 510.829C327.416 510.648 327.431 510.454 327.398 510.265C327.387 510.147 327.347 510.034 327.281 509.936C327.216 509.838 327.127 509.757 327.022 509.702C325.908 509.088 322.39 510.954 322.014 511.129C321.978 511.153 321.949 511.187 321.931 511.227C321.913 511.267 321.907 511.311 321.914 511.354C321.922 511.398 321.942 511.439 321.974 511.47C322.005 511.502 322.046 511.522 322.09 511.53C323.013 511.724 323.951 511.833 324.894 511.855ZM326.434 510.002C326.572 509.997 326.708 510.022 326.835 510.077C326.875 510.099 326.91 510.132 326.934 510.171C326.958 510.211 326.971 510.256 326.972 510.303C326.997 510.425 326.99 510.552 326.95 510.671C326.911 510.789 326.841 510.896 326.747 510.979C326.221 511.48 324.756 511.555 322.766 511.229C323.907 510.609 325.149 510.194 326.434 510.002Z" fill="#0489C7"/>
<path d="M322.115 511.53H322.19C323.254 511.041 325.307 509.113 325.094 508.099C325.094 507.861 324.869 507.561 324.281 507.498C324.072 507.476 323.861 507.497 323.661 507.56C323.461 507.622 323.275 507.725 323.116 507.861C322.027 508.8 321.864 511.217 321.864 511.317C321.864 511.354 321.873 511.391 321.891 511.423C321.908 511.456 321.934 511.484 321.964 511.505C322.01 511.531 322.063 511.54 322.115 511.53ZM324.13 507.899H324.256C324.644 507.899 324.669 508.087 324.681 508.137C324.806 508.75 323.429 510.265 322.352 510.929C322.398 509.921 322.767 508.956 323.404 508.174C323.603 507.994 323.862 507.896 324.13 507.899Z" fill="#0489C7"/>
<path d="M278.169 290.276L286.62 291.528L280.36 299.779C280.36 299.779 273.011 298.452 272.911 292.58L278.169 290.276Z" fill="#7F3E3B"/>
<path d="M292.53 297.262L286.52 304.436L280.385 299.766L286.62 291.516L292.53 297.262Z" fill="#7F3E3B"/>
<path d="M198.041 222.581C198.041 222.581 189.903 219.1 183.38 223.269C176.858 227.438 182.216 228.177 175.055 231.445C167.893 234.712 175.893 239.17 175.055 243.376C174.053 248.384 165.652 250.538 170.397 256.385C175.142 262.231 210.874 265.224 214.768 257.95C218.662 250.675 209.76 250.726 211.926 244.541C214.092 238.356 215.206 234.374 209.209 230.506C203.212 226.637 204.827 219.726 198.041 222.581Z" fill="#263238"/>
<path d="M223.069 275.44C223.419 277.468 223.858 279.772 224.321 281.925C224.784 284.079 225.322 286.307 225.936 288.461C227.123 292.764 228.582 296.988 230.305 301.106C230.719 302.145 231.207 303.122 231.658 304.123L231.783 304.399V304.486C231.783 304.486 231.783 304.486 231.72 304.486C231.495 304.323 231.222 304.239 230.944 304.249C230.731 304.249 230.794 304.349 231.007 304.249C231.316 304.153 231.615 304.023 231.895 303.86C232.713 303.383 233.485 302.83 234.199 302.208C237.499 299.22 240.543 295.961 243.301 292.467L247.057 294.758C244.962 299.228 242.27 303.393 239.057 307.141C238.129 308.186 237.097 309.134 235.977 309.97C235.292 310.462 234.558 310.882 233.786 311.222C232.732 311.694 231.584 311.917 230.431 311.873C228.983 311.796 227.604 311.236 226.512 310.283C226.047 309.884 225.627 309.434 225.26 308.944C225.097 308.718 224.959 308.505 224.834 308.292C224.709 308.08 224.621 307.917 224.546 307.779C223.97 306.69 223.294 305.613 222.831 304.511C220.679 300.122 218.895 295.562 217.497 290.877C216.784 288.561 216.133 286.22 215.607 283.853C215.081 281.487 214.593 279.171 214.255 276.592L223.069 275.44Z" fill="#FFB573"/>
<path d="M219.651 265.674C223.269 266.35 226.675 280.824 226.675 280.824L217.297 288.098C217.297 288.098 206.981 273.938 209.472 269.856C211.964 265.775 214.38 264.685 219.651 265.674Z" fill="#263238"/>
<path opacity="0.2" d="M219.538 268.955L223.194 283.528L217.923 287.609L219.538 268.955Z" fill="black"/>
<path d="M246.857 290.326L253.906 289.137L249.787 296.887C249.787 296.887 244.24 296.974 242.5 293.832L242.913 293.093C243.326 292.37 243.893 291.746 244.575 291.268C245.257 290.79 246.036 290.468 246.857 290.326Z" fill="#FFB573"/>
<path d="M259.99 291.215L257.549 298.176L249.786 296.887L253.906 289.137L259.99 291.215Z" fill="#FFB573"/>
<path d="M236.891 511.93L245.229 509.639L240.497 490.196L232.158 492.487L236.891 511.93Z" fill="#FFB573"/>
<path d="M245.229 508.174L235.914 510.879C235.752 510.923 235.611 511.025 235.519 511.165C235.427 511.306 235.389 511.476 235.414 511.642L236.49 519.317C236.524 519.51 236.599 519.693 236.709 519.855C236.819 520.017 236.962 520.154 237.129 520.257C237.296 520.36 237.482 520.427 237.676 520.452C237.87 520.478 238.068 520.462 238.256 520.406C241.486 519.405 243.001 518.766 247.095 517.577C249.599 516.838 256.935 514.998 260.416 513.984C263.897 512.969 263.083 509.476 261.543 509.589C254.632 510.077 249.486 509.489 246.769 508.337C246.291 508.103 245.746 508.045 245.229 508.174Z" fill="#263238"/>
<g opacity="0.2">
<path opacity="0.2" d="M240.497 490.208L242.926 500.224L234.6 502.515L232.158 492.487L240.497 490.208Z" fill="black"/>
</g>
<path d="M219.651 265.674C219.651 265.674 223.858 266.926 218.812 317.97L183.756 320.174C183.456 305.889 182.917 297.1 174.266 268.279C179.119 266.97 184.061 266.016 189.052 265.424C194.322 264.712 199.635 264.377 204.952 264.422C211.813 264.573 219.651 265.674 219.651 265.674Z" fill="#0489C7"/>
<g opacity="0.4">
<path opacity="0.4" d="M219.651 265.674C219.651 265.674 223.858 266.926 218.812 317.97L183.756 320.174C183.456 305.889 182.917 297.1 174.266 268.279C179.119 266.97 184.061 266.016 189.052 265.424C194.322 264.712 199.635 264.377 204.952 264.422C211.813 264.573 219.651 265.674 219.651 265.674Z" fill="#263238"/>
</g>
<path d="M189.49 247.383C190.817 252.391 192.407 261.743 189.039 265.386C189.039 265.386 190.767 270.482 200.307 269.894C210.762 269.23 204.977 264.385 204.977 264.385C199.193 263.383 199.068 259.139 199.807 255.108L189.49 247.383Z" fill="#FFB573"/>
<path d="M189.052 265.424C194.317 264.712 199.627 264.377 204.94 264.422H205.992C207.406 266.751 207.97 270.432 205.265 276.041C205.265 276.041 190.968 271.308 186.961 265.662L189.052 265.424Z" fill="#FFB573"/>
<path opacity="0.2" d="M193.684 250.538L199.769 255.095C199.587 256.036 199.482 256.991 199.456 257.95C197.265 257.774 193.797 255.696 193.422 253.43C193.207 252.462 193.299 251.451 193.684 250.538Z" fill="black"/>
<path d="M183.418 238.869C185.922 247.07 186.761 250.6 191.982 253.893C199.819 258.838 209.359 254.006 209.384 245.217C209.384 237.317 205.353 225.185 196.426 223.833C194.459 223.514 192.443 223.705 190.571 224.385C188.698 225.066 187.03 226.214 185.727 227.721C184.423 229.228 183.526 231.044 183.122 232.995C182.718 234.946 182.82 236.968 183.418 238.869Z" fill="#FFB573"/>
<path d="M198.016 223.344C199.055 227.313 189.59 241.285 184.307 245.117C179.299 239.62 179.574 232.521 181.74 228.903C183.906 225.285 189.052 221.391 198.016 223.344Z" fill="#263238"/>
<path d="M198.692 223.469C202.887 224.659 207.281 229.629 204.952 229.429C202.624 229.229 192.508 224.747 198.692 223.469Z" fill="#263238"/>
<path d="M218.812 318.008C218.812 318.008 228.653 380.921 231.996 407.05C235.464 434.244 244.002 497.445 244.002 497.445L232.734 500.7C232.734 500.7 215.995 438.763 210.987 412.296C205.541 383.5 193.121 319.648 193.121 319.648L218.812 318.008Z" fill="#0489C7"/>
<g opacity="0.2">
<path opacity="0.2" d="M218.812 318.008C218.812 318.008 228.653 380.921 231.996 407.05C235.464 434.244 244.002 497.445 244.002 497.445L232.734 500.7C232.734 500.7 215.995 438.763 210.987 412.296C205.541 383.5 193.121 319.648 193.121 319.648L218.812 318.008Z" fill="black"/>
</g>
<path d="M231.92 501.351L245.079 497.52L244.829 493.05L229.942 496.819L231.92 501.351Z" fill="#263238"/>
<path d="M211.4 508.212L219.714 510.528L221.942 492.374H213.303L211.4 508.212Z" fill="#FFB573"/>
<path opacity="0.2" d="M212.214 501.401L220.615 503.229L221.942 492.374H213.303L212.214 501.401Z" fill="black"/>
<path d="M220.089 509.689L210.574 507.073C210.408 507.028 210.232 507.039 210.074 507.105C209.915 507.17 209.783 507.287 209.698 507.436L206.768 514.384C206.679 514.555 206.63 514.745 206.627 514.938C206.623 515.131 206.664 515.322 206.746 515.497C206.829 515.671 206.95 515.825 207.102 515.944C207.253 516.064 207.43 516.147 207.619 516.187C210.962 517.038 211.901 517.176 216.095 518.328C218.662 519.029 224.784 522.009 231.42 522.009C234.963 522.009 234.587 518.253 233.097 517.94C226.424 516.488 222.931 512.932 221.329 510.566C221.031 510.137 220.593 509.826 220.089 509.689Z" fill="#263238"/>
<path d="M210.849 318.446C210.849 318.446 244.553 390.436 241.586 413.01C237.968 440.491 222.505 498.384 222.505 498.384L210.724 496.055C210.724 496.055 216.984 437.937 219.413 411.019C222.092 381.685 185.784 358.923 183.493 320.199L210.849 318.446Z" fill="#0489C7"/>
<path d="M209.597 498.772L223.357 501.802L224.671 497.107L209.823 493.801L209.597 498.772Z" fill="#263238"/>
<path d="M222.919 511.955C223.634 512.221 224.416 512.248 225.147 512.03C225.328 511.96 225.49 511.849 225.62 511.706C225.75 511.562 225.846 511.391 225.898 511.204C225.939 511.103 225.95 510.992 225.927 510.885C225.905 510.778 225.851 510.68 225.773 510.603C224.984 509.777 220.978 510.49 220.527 510.603C220.484 510.614 220.443 510.636 220.411 510.666C220.378 510.697 220.353 510.736 220.339 510.778C220.329 510.817 220.332 510.858 220.348 510.894C220.364 510.93 220.392 510.96 220.427 510.979C221.223 511.387 222.058 511.714 222.919 511.955ZM225.11 510.703C225.234 510.729 225.35 510.785 225.448 510.866C225.47 510.904 225.481 510.947 225.481 510.991C225.481 511.035 225.47 511.078 225.448 511.116C225.412 511.237 225.349 511.348 225.265 511.441C225.18 511.534 225.076 511.607 224.959 511.655C224.271 511.955 222.869 511.655 221.141 510.841C222.448 510.583 223.789 510.54 225.11 510.716V510.703Z" fill="#0489C7"/>
<path d="M220.465 510.954H220.552C221.729 510.791 224.421 509.614 224.659 508.663C224.659 508.437 224.659 508.124 224.146 507.911C223.743 507.752 223.296 507.752 222.894 507.911C221.815 508.569 220.947 509.52 220.39 510.653C220.371 510.683 220.361 510.718 220.361 510.753C220.361 510.789 220.371 510.824 220.39 510.854L220.465 510.954ZM223.82 508.262H223.945C224.283 508.4 224.246 508.537 224.233 508.587C224.095 509.163 222.192 510.152 220.928 510.453C221.414 509.542 222.147 508.787 223.044 508.274C223.3 508.204 223.572 508.217 223.82 508.312V508.262Z" fill="#0489C7"/>
<path d="M197.215 237.943C197.378 238.631 197.866 239.094 198.304 238.982C198.742 238.869 198.98 238.243 198.818 237.567C198.655 236.891 198.179 236.428 197.728 236.528C197.278 236.628 197.052 237.267 197.215 237.943Z" fill="#263238"/>
<path d="M204.877 236.14C205.04 236.816 205.528 237.279 205.979 237.179C206.43 237.079 206.643 236.44 206.492 235.764C206.342 235.088 205.841 234.612 205.391 234.725C204.94 234.838 204.727 235.464 204.877 236.14Z" fill="#263238"/>
<path d="M205.215 234.813L206.73 233.949C206.73 233.949 206.192 235.376 205.215 234.813Z" fill="#263238"/>
<path d="M202.824 237.88C203.79 239.284 204.944 240.547 206.255 241.636C205.969 241.966 205.615 242.229 205.217 242.406C204.819 242.584 204.387 242.671 203.951 242.663L202.824 237.88Z" fill="#ED893E"/>
<path d="M200.858 246.231C201.204 246.204 201.548 246.15 201.885 246.068C201.937 246.053 201.982 246.019 202.01 245.973C202.038 245.926 202.047 245.871 202.035 245.818C202.021 245.765 201.986 245.721 201.94 245.693C201.893 245.665 201.838 245.656 201.785 245.667C200.947 245.885 200.069 245.903 199.222 245.718C198.376 245.533 197.586 245.151 196.915 244.603C196.875 244.567 196.824 244.547 196.771 244.547C196.717 244.547 196.666 244.567 196.627 244.603C196.587 244.643 196.565 244.697 196.565 244.753C196.565 244.81 196.587 244.864 196.627 244.904C197.806 245.888 199.328 246.365 200.858 246.231Z" fill="#263238"/>
<path d="M182.955 247.032C183.878 248.409 185.31 249.364 186.936 249.686C189.102 250.1 189.991 248.134 189.24 246.193C188.564 244.44 186.623 242.124 184.532 242.588C184.077 242.698 183.657 242.92 183.309 243.233C182.962 243.547 182.698 243.942 182.541 244.383C182.384 244.824 182.34 245.297 182.413 245.76C182.485 246.222 182.671 246.66 182.955 247.032Z" fill="#FFB573"/>
<path d="M193.772 237.116C193.858 237.11 193.94 237.076 194.006 237.02C194.071 236.964 194.116 236.888 194.135 236.803C194.376 236.179 194.742 235.612 195.212 235.136C195.681 234.66 196.244 234.285 196.865 234.036C196.966 233.995 197.046 233.915 197.089 233.814C197.131 233.713 197.131 233.599 197.09 233.498C197.071 233.448 197.042 233.403 197.005 233.365C196.968 233.326 196.923 233.296 196.874 233.275C196.825 233.254 196.773 233.243 196.719 233.243C196.666 233.242 196.613 233.252 196.564 233.273C195.82 233.565 195.148 234.013 194.593 234.588C194.038 235.162 193.613 235.85 193.346 236.603C193.331 236.656 193.327 236.711 193.335 236.765C193.342 236.819 193.36 236.871 193.388 236.918C193.416 236.965 193.454 237.006 193.498 237.038C193.543 237.07 193.593 237.092 193.647 237.104L193.772 237.116Z" fill="#263238"/>
<path d="M206.355 232.058C206.425 232.05 206.492 232.025 206.55 231.986C206.609 231.947 206.658 231.894 206.693 231.833C206.737 231.734 206.743 231.623 206.708 231.52C206.673 231.418 206.6 231.333 206.505 231.282C205.925 230.978 205.281 230.819 204.627 230.819C203.973 230.819 203.328 230.978 202.749 231.282C202.704 231.309 202.664 231.345 202.633 231.387C202.601 231.429 202.578 231.478 202.566 231.529C202.553 231.58 202.55 231.633 202.558 231.685C202.566 231.738 202.584 231.788 202.611 231.833C202.666 231.927 202.756 231.996 202.862 232.024C202.967 232.052 203.08 232.038 203.175 231.983C203.632 231.75 204.138 231.629 204.652 231.629C205.165 231.629 205.672 231.75 206.129 231.983C206.199 232.023 206.275 232.049 206.355 232.058Z" fill="#263238"/>
<path d="M179.624 279.96C178.861 284.542 178.11 289.237 177.408 293.882C176.707 298.527 176.081 303.184 175.718 307.792L175.593 309.444C175.558 309.807 175.558 310.171 175.593 310.534C175.726 311.546 175.918 312.549 176.169 313.538C176.72 315.654 177.421 317.858 178.185 320.049C179.675 324.456 181.44 328.875 183.193 333.282L179.336 335.336C176.634 331.264 174.188 327.028 172.012 322.653C170.891 320.404 169.9 318.092 169.045 315.729C168.575 314.44 168.203 313.118 167.931 311.773C167.766 310.948 167.682 310.11 167.68 309.269V307.353C167.806 302.412 168.16 297.534 168.745 292.718C169.295 287.885 169.997 283.127 170.936 278.307L179.624 279.96Z" fill="#FFB573"/>
<path d="M174.303 268.279C170.86 269.531 167.405 281.913 167.405 281.913L181.628 290.79C181.628 290.79 185.96 280.385 184.194 275.953C182.366 271.321 178.222 266.814 174.303 268.279Z" fill="#263238"/>
<path d="M248.772 508.713C249.495 508.569 250.148 508.185 250.625 507.623C250.723 507.465 250.782 507.287 250.797 507.102C250.812 506.917 250.783 506.731 250.713 506.559C250.673 506.454 250.607 506.36 250.522 506.285C250.437 506.211 250.335 506.159 250.225 506.134C249.048 505.871 246.231 508.525 245.905 508.825C245.882 508.86 245.869 508.902 245.869 508.944C245.869 508.987 245.882 509.028 245.905 509.063C245.922 509.101 245.95 509.133 245.986 509.154C246.023 509.174 246.065 509.182 246.106 509.176C247.008 509.109 247.901 508.954 248.772 508.713ZM249.749 506.572C249.877 506.542 250.009 506.542 250.137 506.572C250.181 506.582 250.221 506.604 250.254 506.635C250.287 506.666 250.311 506.704 250.325 506.747C250.381 506.855 250.41 506.976 250.41 507.098C250.41 507.22 250.381 507.34 250.325 507.448C249.949 508.049 248.61 508.525 246.682 508.7C247.575 507.821 248.613 507.101 249.749 506.572Z" fill="#0489C7"/>
<path d="M246.106 509.176C246.106 509.176 246.168 509.176 246.181 509.176C247.045 508.45 248.484 506.096 248.059 505.194C247.959 504.982 247.721 504.756 247.157 504.856C246.957 504.892 246.765 504.968 246.595 505.079C246.425 505.191 246.28 505.337 246.168 505.507C245.688 506.629 245.579 507.875 245.855 509.063C245.861 509.099 245.875 509.132 245.897 509.161C245.919 509.189 245.948 509.212 245.98 509.226L246.106 509.176ZM247.107 505.232H247.232C247.596 505.232 247.658 505.307 247.683 505.345C247.946 505.883 247.02 507.673 246.193 508.575C245.991 507.61 246.1 506.606 246.506 505.708C246.641 505.481 246.855 505.312 247.107 505.232Z" fill="#0489C7"/>
<path d="M197.541 236.628L199.068 235.777C199.068 235.777 198.53 237.229 197.541 236.628Z" fill="#263238"/>
<path d="M183.143 318.146L182.454 321.338C182.341 321.589 182.642 321.827 183.055 321.802L219.1 319.523C219.413 319.523 219.663 319.335 219.676 319.135L219.789 315.98C219.789 315.767 219.513 315.592 219.163 315.617L183.706 317.858C183.595 317.855 183.486 317.88 183.388 317.93C183.289 317.981 183.205 318.055 183.143 318.146Z" fill="#263238"/>
<path d="M188.163 321.764H187.212C187.024 321.764 186.874 321.689 186.874 321.564L187.061 317.47C187.061 317.344 187.224 317.244 187.412 317.232L188.363 317.169C188.551 317.169 188.701 317.244 188.701 317.37L188.514 321.464C188.501 321.764 188.351 321.764 188.163 321.764Z" fill="#0489C7"/>
<path d="M216.433 320.036H215.494C215.294 320.036 215.144 319.949 215.156 319.836L215.344 315.729C215.344 315.617 215.507 315.504 215.695 315.492H216.646C216.834 315.492 216.984 315.567 216.984 315.679L216.796 319.786C216.784 319.911 216.596 320.024 216.433 320.036Z" fill="#0489C7"/>
<path d="M202.298 320.925L201.347 320.988C201.159 320.988 201.009 320.913 201.009 320.787L201.209 316.693C201.209 316.568 201.372 316.456 201.559 316.443H202.511C202.699 316.443 202.849 316.518 202.837 316.631L202.649 320.737C202.649 320.8 202.486 320.913 202.298 320.925Z" fill="#0489C7"/>
<path d="M182.967 332.444L190.066 338.503L181.39 339.931C181.39 339.931 177.972 335.574 179.412 332.281L182.967 332.444Z" fill="#FFB573"/>
<path d="M191.506 345.627L184.182 346.428L181.39 339.931L190.066 338.503L191.506 345.627Z" fill="#FFB573"/>
<path d="M381.096 207.544C415.531 207.544 443.446 179.629 443.446 145.194C443.446 110.76 415.531 82.8448 381.096 82.8448C346.662 82.8448 318.747 110.76 318.747 145.194C318.747 179.629 346.662 207.544 381.096 207.544Z" fill="#0489C7"/>
<path d="M255.02 120.417L254.194 119.478C259.236 114.982 265.755 112.496 272.51 112.492V113.744C266.059 113.747 259.834 116.122 255.02 120.417Z" fill="#0489C7"/>
<path d="M247.896 130.821L246.719 130.383C247.457 128.418 248.419 126.544 249.586 124.799L250.625 125.5C249.519 127.166 248.604 128.951 247.896 130.821Z" fill="#0489C7"/>
<path d="M288.91 156.451C297.965 147.396 297.965 132.715 288.91 123.66C279.855 114.604 265.173 114.604 256.118 123.659C247.063 132.715 247.063 147.396 256.118 156.451C265.173 165.506 279.855 165.506 288.91 156.451Z" fill="#0489C7"/>
<path d="M225.886 200.733C233.741 200.733 240.109 194.365 240.109 186.51C240.109 178.655 233.741 172.288 225.886 172.288C218.031 172.288 211.663 178.655 211.663 186.51C211.663 194.365 218.031 200.733 225.886 200.733Z" fill="#0489C7"/>
<path d="M476.561 156.788C482.791 156.788 487.842 151.737 487.842 145.507C487.842 139.277 482.791 134.227 476.561 134.227C470.331 134.227 465.281 139.277 465.281 145.507C465.281 151.737 470.331 156.788 476.561 156.788Z" fill="#0489C7"/>
<path d="M414.274 134.377C414.279 128.411 412.674 122.555 409.63 117.424C406.586 112.293 402.215 108.078 396.977 105.223C391.739 102.367 385.828 100.977 379.866 101.198C373.904 101.419 368.112 103.244 363.1 106.48C358.088 109.716 354.042 114.243 351.386 119.585C348.731 124.928 347.565 130.887 348.011 136.836C348.458 142.785 350.5 148.504 353.923 153.39C357.346 158.276 362.023 162.149 367.462 164.6V170.472H394.731V164.6C400.553 161.98 405.494 157.733 408.961 152.372C412.428 147.01 414.273 140.762 414.274 134.377Z" fill="white"/>
<path opacity="0.2" d="M392.377 186.51H369.816L367.462 170.472H394.731L392.377 186.51Z" fill="black"/>
<path opacity="0.4" d="M386.668 189.177H375.525L374.373 186.51H387.82L386.668 189.177Z" fill="black"/>
<path d="M377.553 141.939C376.785 139.715 375.497 137.706 373.797 136.08C369.878 132.174 365.033 130.859 362.842 133.088C361.715 134.214 361.452 136.03 362.116 138.183C362.884 140.404 364.172 142.408 365.872 144.03C368.489 146.659 371.518 148.112 373.91 148.112C374.464 148.118 375.016 148.025 375.537 147.836L377.753 170.547C377.772 170.753 377.867 170.945 378.02 171.084C378.173 171.223 378.373 171.299 378.58 171.299H378.655C378.765 171.289 378.872 171.258 378.969 171.207C379.067 171.155 379.153 171.085 379.223 171C379.293 170.915 379.345 170.816 379.377 170.711C379.408 170.605 379.418 170.494 379.406 170.385L377.09 146.709C377.55 146.012 377.833 145.213 377.914 144.382C377.995 143.55 377.871 142.712 377.553 141.939ZM367.049 142.853C365.555 141.417 364.418 139.65 363.731 137.695C363.479 137.143 363.377 136.534 363.434 135.93C363.491 135.326 363.706 134.747 364.057 134.252C364.297 134.04 364.576 133.878 364.879 133.775C365.182 133.672 365.503 133.63 365.822 133.651C367.612 133.651 370.216 134.815 372.658 137.257C374.158 138.688 375.295 140.457 375.976 142.415C376.23 142.967 376.334 143.576 376.276 144.18C376.219 144.785 376.003 145.364 375.65 145.858C374.348 147.21 370.592 146.321 367.049 142.853Z" fill="#0489C7"/>
<path d="M399.313 133.088C398.174 131.948 396.371 131.685 394.217 132.349C392.018 133.152 390.021 134.427 388.366 136.083C386.712 137.74 385.44 139.739 384.639 141.939C384.322 142.711 384.197 143.549 384.276 144.38C384.354 145.211 384.634 146.01 385.09 146.709L382.774 170.385C382.753 170.605 382.82 170.825 382.961 170.997C383.102 171.168 383.305 171.276 383.525 171.299H383.6C383.807 171.299 384.007 171.223 384.16 171.084C384.313 170.945 384.408 170.753 384.427 170.547L386.643 147.836C387.168 148.026 387.724 148.119 388.283 148.112C390.662 148.112 393.691 146.659 396.308 144.03C398.008 142.408 399.296 140.404 400.064 138.183C400.703 136.03 400.44 134.214 399.313 133.088ZM398.462 137.695C397.779 139.653 396.642 141.42 395.144 142.853C391.676 146.321 387.895 147.21 386.543 145.858C386.189 145.364 385.973 144.785 385.916 144.18C385.859 143.576 385.963 142.967 386.217 142.415C386.902 140.459 388.039 138.692 389.535 137.257C390.971 135.756 392.743 134.619 394.706 133.939C395.252 133.76 395.821 133.663 396.396 133.651C397.031 133.623 397.653 133.838 398.136 134.252C398.494 134.749 398.713 135.332 398.77 135.942C398.827 136.551 398.721 137.165 398.462 137.72V137.695Z" fill="#0489C7"/>
</g>
<defs>
<clipPath id="clip0_16_285">
<rect width="626" height="626" fill="white"/>
</clipPath>
</defs>
</svg>
