<svg width="118" height="118" viewBox="0 0 118 118" fill="none" xmlns="http://www.w3.org/2000/svg">
<g clip-path="url(#clip0_659_94)">
<path d="M113.88 47.9839C112.672 45.956 111.532 44.0403 110.912 42.132C110.254 40.1053 110.033 37.8105 109.8 35.3809C109.426 31.4987 109.04 27.4841 106.734 24.3161C104.404 21.1151 100.69 19.5081 97.0974 17.9538C94.8727 16.9914 92.7715 16.0822 91.076 14.8482C89.4124 13.6376 87.9197 11.9358 86.3391 10.1342C83.7422 7.17408 81.057 4.11322 77.2358 2.87261C73.5799 1.68546 69.6781 2.55041 65.9046 3.38655C63.5891 3.89981 61.1948 4.43035 59 4.43035C56.8055 4.43035 54.4109 3.89958 52.0954 3.38655C48.3219 2.55041 44.4199 1.68546 40.7639 2.87284C36.943 4.11345 34.2578 7.17431 31.6609 10.1344C30.0806 11.9358 28.5876 13.6376 26.924 14.8482C26.3387 15.2744 25.6708 15.686 24.8821 16.1066C24.0397 16.5558 23.7212 17.6028 24.1704 18.4452C24.6196 19.2875 25.6666 19.6058 26.5092 19.1566C27.4408 18.6597 28.2421 18.1647 28.9584 17.6431C30.9328 16.2061 32.6242 14.2783 34.2599 12.414C36.654 9.68527 38.9151 7.1077 41.8319 6.16048C44.5927 5.26441 47.8739 5.99154 51.3477 6.76154C53.8449 7.3149 56.4273 7.88715 59.0005 7.88715C61.5736 7.88715 64.1558 7.3149 66.6532 6.76131C70.1275 5.99154 73.4091 5.26441 76.1688 6.16025C79.0856 7.10724 81.3469 9.68481 83.7411 12.4138C85.3767 14.278 87.0679 16.2059 89.0425 17.6429C91.0476 19.1022 93.4256 20.131 95.7254 21.126C99.0375 22.5588 102.166 23.9123 103.94 26.3498C105.69 28.7545 106.015 32.1338 106.359 35.7116C106.601 38.2194 106.85 40.8124 107.625 43.1991C108.364 45.4757 109.659 47.6497 110.911 49.752C112.778 52.8908 114.543 55.8548 114.543 58.9996C114.543 62.1443 112.778 65.1086 110.909 68.2469C109.658 70.3493 108.363 72.523 107.624 74.7994C106.849 77.1861 106.6 79.7791 106.358 82.2871C106.014 85.8646 105.689 89.2442 103.939 91.6489C102.165 94.0864 99.0366 95.4397 95.7245 96.8725C93.4247 97.8675 91.0467 98.8963 89.0416 100.356C87.0672 101.793 85.3758 103.72 83.7401 105.585C81.346 108.313 79.0849 110.891 76.1681 111.838C73.4078 112.734 70.1266 112.007 66.6523 111.237C64.1549 110.684 61.5727 110.111 58.9998 110.111C56.4266 110.111 53.8444 110.684 51.3471 111.237C47.873 112.007 44.5918 112.734 41.8312 111.838C38.9144 110.891 36.6531 108.313 34.2592 105.584C32.6235 103.72 30.9324 101.792 28.9577 100.355C26.9526 98.896 24.5744 97.8672 22.2748 96.8723C18.963 95.4395 15.8346 94.0859 14.0607 91.6487C12.3107 89.244 11.9855 85.8646 11.641 82.2868C11.3997 79.7791 11.1501 77.1861 10.3752 74.7994C9.63613 72.523 8.34182 70.349 7.09014 68.2469C5.22196 65.1086 3.45703 62.1443 3.45703 58.9996C3.45703 55.8548 5.22196 52.8908 7.0906 49.7525C8.34228 47.6502 9.63659 45.4761 10.3757 43.1998C11.1508 40.8131 11.4001 38.2198 11.6417 35.7121C11.986 32.1343 12.3112 28.7549 14.0614 26.3502C15.0697 24.9649 16.5802 23.8178 18.9593 22.6312C19.8136 22.205 20.1607 21.167 19.7346 20.3129C19.3084 19.4585 18.2704 19.1114 17.4163 19.5376C15.4628 20.512 12.9984 21.9358 11.266 24.3163C8.96039 27.4844 8.57413 31.4987 8.20031 35.3812C7.96661 37.8108 7.74559 40.1055 7.08761 42.1325C6.46811 44.0408 5.32752 45.9562 4.12009 47.9841C2.0945 51.3858 0 54.9037 0 58.9996C0 63.0957 2.0945 66.6136 4.12009 70.0155C5.32752 72.0434 6.46811 73.9589 7.08761 75.8671C7.74559 77.8939 7.96638 80.1887 8.20031 82.618C8.5739 86.5005 8.96039 90.515 11.266 93.6831C13.5956 96.884 17.3103 98.4911 20.9026 100.045C23.1273 101.008 25.2287 101.917 26.924 103.151C28.5876 104.362 30.0803 106.063 31.6609 107.865C34.2578 110.825 36.9432 113.886 40.7642 115.126C42.0518 115.544 43.3694 115.708 44.7015 115.708C47.1521 115.708 49.6508 115.154 52.0954 114.613C54.4109 114.099 56.8055 113.569 59 113.569C61.1948 113.569 63.5891 114.099 65.9046 114.613C69.6781 115.449 73.5799 116.314 77.2361 115.126C81.057 113.886 83.7422 110.825 86.3389 107.865C87.9194 106.063 89.4124 104.362 91.076 103.151C92.7713 101.917 94.8727 101.008 97.0974 100.045C100.69 98.4909 104.404 96.8838 106.734 93.6828C109.04 90.5148 109.426 86.5003 109.8 82.618C110.033 80.1884 110.254 77.8937 110.912 75.8669C111.532 73.9586 112.672 72.0432 113.88 70.0153C115.905 66.6134 118 63.0955 118 58.9996C118 54.9037 115.905 51.3858 113.88 47.9839Z" fill="#555555"/>
<path d="M16.6062 45.2252C16.1153 46.7373 15.1996 48.2745 14.2305 49.9023C12.5659 52.6981 10.8445 55.5891 10.8445 58.9996C10.8445 62.4101 12.5659 65.3011 14.2305 68.0971C15.1996 69.7249 16.1151 71.2624 16.6062 72.7742C17.1287 74.3834 17.3059 76.2262 17.4937 78.1774C17.8007 81.3682 18.1183 84.6678 20.04 87.3083C21.981 89.9755 25.034 91.2963 27.9863 92.5736C29.7726 93.3466 31.4599 94.0765 32.8049 95.0553C34.1241 96.0154 35.3226 97.3814 36.5913 98.8278C38.7257 101.261 40.9326 103.776 44.1159 104.81C45.1977 105.161 46.2996 105.298 47.4093 105.298C49.4272 105.298 51.4724 104.845 53.4736 104.402C55.419 103.97 57.2565 103.563 58.9998 103.563C60.743 103.563 62.5806 103.97 64.5259 104.402C67.6281 105.089 70.835 105.8 73.8837 104.81C77.0667 103.776 79.2737 101.261 81.408 98.8278C82.6768 97.3816 83.8754 96.0154 85.1944 95.0553C86.5394 94.0765 88.2267 93.3466 90.013 92.5736C92.9653 91.2961 96.0183 89.9755 97.9594 87.3083C99.881 84.6678 100.198 81.3684 100.506 78.1776C100.693 76.2264 100.871 74.3834 101.393 72.7745C101.884 71.2624 102.8 69.7249 103.769 68.0971C105.434 65.3013 107.155 62.4103 107.155 58.9998C107.155 55.5896 105.434 52.6983 103.769 49.9025C102.8 48.2747 101.884 46.7373 101.393 45.2252C100.871 43.6163 100.693 41.7732 100.506 39.822C100.199 36.6312 99.881 33.3318 97.9594 30.6913C96.0183 28.0241 92.9653 26.7033 90.013 25.426C88.2267 24.6531 86.5394 23.9232 85.1944 22.9444C83.8752 21.9842 82.6768 20.6182 81.408 19.1718C79.2737 16.7388 77.0667 14.2232 73.8837 13.1895C70.8348 12.1997 67.6278 12.9104 64.5259 13.5979C62.5806 14.0291 60.743 14.4364 58.9998 14.4364C57.2565 14.4364 55.419 14.0291 53.4736 13.5979C50.3717 12.9104 47.1643 12.1997 44.1159 13.1895C40.9326 14.223 38.7257 16.7388 36.5913 19.1718C35.3226 20.618 34.1241 21.9842 32.8049 22.9444C31.4599 23.9232 29.7726 24.6533 27.9863 25.426C25.034 26.7033 21.981 28.0241 20.04 30.6913C18.1183 33.3318 17.801 36.6312 17.4937 39.822C17.3059 41.773 17.1287 43.6158 16.6062 45.2252ZM20.9349 40.153C21.2096 37.2984 21.4691 34.6024 22.8351 32.7252C24.2204 30.8218 26.7164 29.7418 29.3592 28.5984C31.2398 27.7849 33.1845 26.9435 34.8393 25.739C36.4694 24.5528 37.8527 22.9762 39.1903 21.4514C41.1004 19.2739 42.9048 17.2172 45.1836 16.4774C47.336 15.7789 49.9539 16.3587 52.7257 16.9729C54.7672 17.4253 56.8783 17.8932 59 17.8932C61.1217 17.8932 63.2328 17.4253 65.2743 16.9729C68.0457 16.3585 70.6633 15.7782 72.8164 16.4774C75.0953 17.2172 76.8996 19.2739 78.8097 21.4514C80.1474 22.9762 81.5306 24.5528 83.1607 25.739C84.8155 26.9435 86.7602 27.7849 88.6408 28.5984C91.2834 29.7418 93.7793 30.8216 95.1649 32.7252C96.5309 34.6024 96.7904 37.2984 97.0651 40.153C97.2624 42.2035 97.4666 44.3238 98.1059 46.2927C98.7164 48.1731 99.7752 49.9511 100.799 51.6709C102.29 54.1752 103.699 56.5405 103.699 58.9996C103.699 61.4587 102.29 63.8242 100.799 66.3283C99.7752 68.0478 98.7164 69.8261 98.1059 71.7065C97.4666 73.6754 97.2624 75.7957 97.0651 77.8462C96.7904 80.7008 96.5309 83.397 95.1649 85.2739C93.7796 87.1774 91.2836 88.2574 88.6408 89.4007C86.7602 90.2143 84.8155 91.0557 83.1607 92.2601C81.5306 93.4464 80.1474 95.0232 78.8097 96.5478C76.8996 98.7253 75.0953 100.782 72.8164 101.522C70.6638 102.221 68.0459 101.64 65.2743 101.026C63.2328 100.574 61.1217 100.106 59 100.106C56.8783 100.106 54.7672 100.574 52.7257 101.026C49.9543 101.64 47.3362 102.221 45.1836 101.522C42.9048 100.782 41.1004 98.7253 39.1903 96.5478C37.8527 95.023 36.4694 93.4464 34.8393 92.2601C33.1845 91.0557 31.2398 90.2145 29.3592 89.4007C26.7166 88.2574 24.2207 87.1776 22.8351 85.2739C21.4691 83.3968 21.2096 80.7005 20.9349 77.8462C20.7376 75.7957 20.5336 73.6756 19.8943 71.7067C19.2838 69.8263 18.225 68.0482 17.201 66.3285C15.7099 63.8242 14.3015 61.4589 14.3015 58.9996C14.3015 56.5405 15.7099 54.1752 17.201 51.6709C18.2248 49.9511 19.2838 48.1729 19.8943 46.2927C20.5334 44.3238 20.7376 42.2035 20.9349 40.153Z" fill="#555555"/>
<path d="M52.7735 81.9142C52.6725 81.9142 52.5718 81.9126 52.4706 81.9092C49.9152 81.8225 47.5123 80.6453 45.8781 78.6789L37.297 68.3541C35.395 66.0653 35.7093 62.6558 37.9981 60.7535L40.4037 58.7542C42.6928 56.8521 46.1018 57.1665 48.0044 59.4553L52.3275 64.657C52.5704 64.9492 52.8802 65.002 53.0431 65.0075C53.2044 65.013 53.5183 64.9814 53.7806 64.706C53.7951 64.6908 53.8099 64.6759 53.8251 64.6611L75.9054 43.1178C76.8973 42.0892 78.229 41.5043 79.6586 41.4695C81.0976 41.4335 82.4684 41.9629 83.5122 42.9572L85.777 45.1148C87.9319 47.1674 88.0149 50.5903 85.9623 52.7452C85.9504 52.7579 85.9381 52.7701 85.9259 52.7823L74.1925 64.3797C73.5133 65.0511 72.4188 65.0444 71.7482 64.3654C71.077 63.6864 71.0835 62.592 71.7622 61.9211L83.4742 50.3446C84.1967 49.5691 84.1619 48.3504 83.3926 47.6175L81.1276 45.4598C80.7524 45.1024 80.2601 44.9111 79.7422 44.9249C79.2241 44.9376 78.742 45.151 78.3845 45.5262C78.3698 45.5414 78.355 45.5564 78.34 45.5711L56.2588 67.1151C55.3893 68.0137 54.1719 68.5051 52.9258 68.4615C51.6631 68.4189 50.4759 67.8372 49.6686 66.8655L45.3454 61.6639C44.6616 60.8411 43.4358 60.7282 42.6132 61.4117L40.2074 63.411C39.3846 64.0948 39.2717 65.3205 39.9552 66.1432L48.5363 76.468C49.5404 77.6764 51.017 78.3998 52.5872 78.4528C54.156 78.5072 55.6794 77.8843 56.7631 76.7467C56.7751 76.734 56.7873 76.7218 56.7995 76.7095L66.4905 67.1308C67.1697 66.4595 68.2642 66.4661 68.9351 67.1451C69.6062 67.8241 69.5997 68.9186 68.921 69.5894L59.2475 79.1509C57.5552 80.9177 55.2116 81.9142 52.7735 81.9142Z" fill="#555555"/>
</g>
<defs>
<clipPath id="clip0_659_94">
<rect width="118" height="118" fill="white"/>
</clipPath>
</defs>
</svg>
