<svg width="118" height="118" viewBox="0 0 118 118" fill="none" xmlns="http://www.w3.org/2000/svg">
<g clip-path="url(#clip0_659_82)">
<path d="M117.783 27.9809C117.377 26.4707 116.386 25.1831 115.03 24.4026C113.674 23.6181 112.061 23.406 110.548 23.8121C109.036 24.2192 107.749 25.2091 106.968 26.5648L105.985 28.2757C105.051 27.739 103.857 28.0549 103.311 28.9843L98.3166 37.4977L96.6056 36.5145C96.1525 36.2524 95.6129 36.1813 95.1078 36.3177C94.6019 36.455 94.1717 36.7872 93.9115 37.2423C93.3787 38.1822 93.7032 39.3766 94.6393 39.9162L96.3502 40.8994L79.6364 69.8634L75.5069 80.8952L73.5406 84.5715C72.3894 86.5744 72.5123 89.064 73.8555 90.9429L69.4313 96.3695L68.1927 93.2635C67.6339 91.879 66.3406 90.9304 64.8534 90.8143C63.3652 90.6971 61.9394 91.4326 61.1723 92.7124L60.4647 93.9116L59.7964 86.0463C59.6428 84.1856 58.2017 82.6897 56.3486 82.465C54.4946 82.2413 52.7395 83.3522 52.1471 85.1227L47.31 99.634C46.9721 100.66 47.5251 101.766 48.5486 102.112C48.7406 102.201 48.9471 102.255 49.1583 102.269C50.0032 102.271 50.7559 101.733 51.0267 100.932L55.8436 86.4207L56.532 94.4032C56.6741 96.1065 57.8983 97.5226 59.5631 97.9086C61.228 98.2946 62.9504 97.5611 63.827 96.0949L64.5548 94.8948L65.7742 97.9825C66.2917 99.2835 67.4621 100.212 68.8475 100.418C70.233 100.625 71.6232 100.078 72.4989 98.9849L77.0806 93.1848C77.5875 93.3173 78.1098 93.3836 78.6341 93.3816C80.7415 93.398 82.6983 92.2881 83.7659 90.4705L85.7322 87.1869L93.2241 78.083L110.115 48.7647L111.826 49.7479C112.282 50.009 112.614 50.4401 112.749 50.948C112.885 51.4521 112.814 51.9898 112.553 52.442L104.688 66.069C104.391 66.5164 104.29 67.0656 104.41 67.5899C104.529 68.1131 104.856 68.5653 105.317 68.8409C105.77 69.104 106.31 69.175 106.815 69.0387C107.321 68.9014 107.751 68.5692 108.011 68.1141L115.876 54.4871C116.661 53.1304 116.873 51.5174 116.466 50.0042C116.059 48.493 115.069 47.2055 113.713 46.4249L112.002 45.4417L116.918 36.9274C117.455 35.9932 117.139 34.8007 116.21 34.2534L117.194 32.5425C117.999 31.1647 118.212 29.5191 117.783 27.9809ZM110.37 28.5311C110.63 28.076 111.062 27.7428 111.57 27.6075C112.075 27.4826 112.609 27.5527 113.064 27.8043C113.52 28.0645 113.852 28.4965 113.989 29.0035C114.113 29.5085 114.043 30.0423 113.792 30.4974L112.809 32.2084L109.387 30.242L110.37 28.5311ZM83.5691 83.4319L82.5859 82.8616L79.6758 81.1698L82.4678 73.6982L88.6616 77.2765L83.5691 83.4319ZM77.6701 89.1139C76.8396 88.5349 76.5842 87.4212 77.0806 86.5379L78.0637 84.8279L81.4847 86.7942L80.5015 88.485C80.2259 88.9632 79.7632 89.303 79.2245 89.423C78.6859 89.5421 78.1223 89.4307 77.6701 89.1139ZM90.9035 74.0524L84.1 70.1198L99.8307 42.8657L106.634 46.7984L90.9035 74.0524ZM108.6 43.3967L101.797 39.464L105.73 32.6606L112.533 36.5932L108.6 43.3967Z" fill="#555555"/>
<path d="M31.0282 88.131L24.0683 95.0727L19.8995 90.9038C19.1323 90.1415 17.8938 90.1415 17.1266 90.9038C16.7541 91.2735 16.5448 91.7756 16.5448 92.2998C16.5448 92.8241 16.7541 93.3272 17.1266 93.6959L21.2955 97.8647C22.0329 98.5963 23.0295 99.0063 24.0683 99.0053C25.1129 99.0111 26.1182 98.6011 26.8604 97.8647L33.8011 90.9038C34.4693 90.1232 34.4242 88.9605 33.6983 88.2347C32.9715 87.5079 31.8088 87.4627 31.0282 88.131Z" fill="#555555"/>
<path d="M7.86536 93.4203C7.86536 102.652 15.3486 110.134 24.5792 110.134C33.8098 110.134 41.293 102.652 41.293 93.4203C41.293 92.3344 40.4126 91.454 39.3267 91.454C38.2408 91.454 37.3603 92.3344 37.3603 93.4203C37.3603 100.479 31.638 106.201 24.5792 106.201C17.5204 106.201 11.798 100.479 11.798 93.4203C11.798 86.3615 17.5204 80.6392 24.5792 80.6392C27.3462 80.6315 30.0394 81.5292 32.2477 83.196C33.1166 83.8479 34.3494 83.6712 35.0003 82.8023C35.6523 81.9334 35.4766 80.7016 34.6077 80.0496C29.543 76.2514 22.7665 75.6408 17.1046 78.4712C11.4418 81.3026 7.86536 87.0902 7.86536 93.4203Z" fill="#555555"/>
<path d="M70.7879 15.751C71.8738 15.751 72.7542 14.8716 72.7542 13.7847C72.7542 12.6988 71.8738 11.8184 70.7879 11.8184H19.6632C18.5773 11.8184 17.6969 12.6988 17.6969 13.7847V21.65C17.6969 22.7369 18.5773 23.6163 19.6632 23.6163H70.7879C71.8738 23.6163 72.7542 22.7369 72.7542 21.65C72.7542 20.5641 71.8738 19.6837 70.7879 19.6837H21.6296V15.751H70.7879Z" fill="#555555"/>
<path d="M25.5623 27.5488C24.4764 27.5488 23.5959 28.4293 23.5959 29.5152C23.5959 30.602 24.4764 31.4815 25.5623 31.4815H64.8889C65.9748 31.4815 66.8553 30.602 66.8553 29.5152C66.8553 28.4293 65.9748 27.5488 64.8889 27.5488H25.5623Z" fill="#555555"/>
<path d="M76.6869 41.3125H33.4276C32.3417 41.3125 31.4613 42.1929 31.4613 43.2788C31.4613 44.3657 32.3417 45.2452 33.4276 45.2452H76.6869C77.7728 45.2452 78.6533 44.3657 78.6533 43.2788C78.6533 42.1929 77.7728 41.3125 76.6869 41.3125Z" fill="#555555"/>
<path d="M57.0236 55.0767C57.0236 53.9908 56.1431 53.1104 55.0572 53.1104H15.7306C14.6447 53.1104 13.7643 53.9908 13.7643 55.0767C13.7643 56.1635 14.6447 57.043 15.7306 57.043H55.0572C56.1431 57.043 57.0236 56.1635 57.0236 55.0767Z" fill="#555555"/>
<path d="M76.687 53.1104H62.9226C61.8367 53.1104 60.9563 53.9908 60.9563 55.0767C60.9563 56.1635 61.8367 57.043 62.9226 57.043H76.687C77.7729 57.043 78.6533 56.1635 78.6533 55.0767C78.6533 53.9908 77.7729 53.1104 76.687 53.1104Z" fill="#555555"/>
<path d="M35.3939 66.875C36.4798 66.875 37.3603 65.9956 37.3603 64.9087C37.3603 63.8228 36.4798 62.9424 35.3939 62.9424H15.7306C14.6447 62.9424 13.7643 63.8228 13.7643 64.9087C13.7643 65.9956 14.6447 66.875 15.7306 66.875H35.3939Z" fill="#555555"/>
<path d="M43.2593 66.875H57.0236C58.1095 66.875 58.99 65.9956 58.99 64.9087C58.99 63.8228 58.1095 62.9424 57.0236 62.9424H43.2593C42.1734 62.9424 41.293 63.8228 41.293 64.9087C41.293 65.9956 42.1734 66.875 43.2593 66.875Z" fill="#555555"/>
<path d="M88.4849 90.4708C87.399 90.4708 86.5186 91.3512 86.5186 92.4371V112.1C86.5186 113.187 85.6382 114.067 84.5523 114.067H5.89899C4.8131 114.067 3.93266 113.187 3.93266 112.1V5.91853C3.93266 4.83263 4.8131 3.95219 5.89899 3.95219H84.5523C85.6382 3.95219 86.5186 4.83263 86.5186 5.91853V42.8468C86.5186 43.9327 87.399 44.8131 88.4849 44.8131C89.5708 44.8131 90.4513 43.9327 90.4513 42.8468V5.91853C90.4513 2.66083 87.81 0.0195312 84.5523 0.0195312H5.89899C2.6413 0.0195312 0 2.66083 0 5.91853V112.1C0 115.359 2.6413 117.999 5.89899 117.999H84.5523C87.81 117.999 90.4513 115.359 90.4513 112.1V92.4371C90.4513 91.3512 89.5708 90.4708 88.4849 90.4708Z" fill="#555555"/>
</g>
<defs>
<clipPath id="clip0_659_82">
<rect width="118" height="118" fill="white"/>
</clipPath>
</defs>
</svg>
