<svg width="50" height="50" viewBox="0 0 50 50" fill="none" xmlns="http://www.w3.org/2000/svg">
<path d="M12.5001 14.583H22.9167C23.4693 14.583 23.9992 14.8025 24.3899 15.1932C24.7806 15.5839 25.0001 16.1138 25.0001 16.6663C25.0001 17.2189 24.7806 17.7488 24.3899 18.1395C23.9992 18.5302 23.4693 18.7497 22.9167 18.7497H12.5001C11.9475 18.7497 11.4176 18.5302 11.0269 18.1395C10.6362 17.7488 10.4167 17.2189 10.4167 16.6663C10.4167 16.1138 10.6362 15.5839 11.0269 15.1932C11.4176 14.8025 11.9475 14.583 12.5001 14.583ZM27.0834 31.2497H37.5001C38.0526 31.2497 38.5825 31.4692 38.9732 31.8599C39.3639 32.2506 39.5834 32.7805 39.5834 33.333C39.5834 33.8855 39.3639 34.4154 38.9732 34.8061C38.5825 35.1968 38.0526 35.4163 37.5001 35.4163H27.0834C26.5309 35.4163 26.001 35.1968 25.6103 34.8061C25.2196 34.4154 25.0001 33.8855 25.0001 33.333C25.0001 32.7805 25.2196 32.2506 25.6103 31.8599C26.001 31.4692 26.5309 31.2497 27.0834 31.2497ZM12.5001 22.9163H37.5001C38.0526 22.9163 38.5825 23.1358 38.9732 23.5265C39.3639 23.9172 39.5834 24.4471 39.5834 24.9997C39.5834 25.5522 39.3639 26.0821 38.9732 26.4728C38.5825 26.8635 38.0526 27.083 37.5001 27.083H12.5001C11.9475 27.083 11.4176 26.8635 11.0269 26.4728C10.6362 26.0821 10.4167 25.5522 10.4167 24.9997C10.4167 24.4471 10.6362 23.9172 11.0269 23.5265C11.4176 23.1358 11.9475 22.9163 12.5001 22.9163Z" fill="#555555"/>
</svg>
