<svg width="40" height="40" viewBox="0 0 40 40" fill="none" xmlns="http://www.w3.org/2000/svg">
<path d="M7.77789 6.66656H25.5557V17.5554H27.7779V6.66656C27.7779 6.07719 27.5438 5.51196 27.127 5.09521C26.7103 4.67846 26.145 4.44434 25.5557 4.44434H7.77789C7.18852 4.44434 6.62329 4.67846 6.20654 5.09521C5.78979 5.51196 5.55566 6.07719 5.55566 6.66656V33.3332C5.55566 33.9226 5.78979 34.4878 6.20654 34.9046C6.62329 35.3213 7.18852 35.5554 7.77789 35.5554H25.5557C26.145 35.5554 26.7103 35.3213 27.127 34.9046C27.5438 34.4878 27.7779 33.9226 27.7779 33.3332H7.77789V6.66656Z" fill="#555555"/>
<path d="M31.2887 19.1998C31.0761 19.0178 30.8027 18.9226 30.5231 18.9334C30.2434 18.9442 29.9782 19.0602 29.7803 19.2581C29.5824 19.4559 29.4665 19.7212 29.4557 20.0008C29.4449 20.2805 29.54 20.5539 29.722 20.7665L33.4776 24.4442H17.3665C17.0718 24.4442 16.7892 24.5613 16.5808 24.7697C16.3724 24.978 16.2554 25.2607 16.2554 25.5553C16.2554 25.85 16.3724 26.1327 16.5808 26.341C16.7892 26.5494 17.0718 26.6665 17.3665 26.6665H33.4776L29.722 30.5109C29.6057 30.6105 29.5113 30.7331 29.4446 30.8709C29.3779 31.0088 29.3404 31.1589 29.3345 31.312C29.3286 31.465 29.3544 31.6176 29.4102 31.7602C29.4661 31.9027 29.5508 32.0322 29.6591 32.1405C29.7674 32.2488 29.8969 32.3335 30.0395 32.3894C30.182 32.4453 30.3346 32.471 30.4877 32.4651C30.6407 32.4592 30.7908 32.4217 30.9287 32.355C31.0665 32.2884 31.1891 32.1939 31.2887 32.0776L37.7776 25.6331L31.2887 19.1998Z" fill="#555555"/>
</svg>
