<svg width="118" height="118" viewBox="0 0 118 118" fill="none" xmlns="http://www.w3.org/2000/svg">
<path d="M118 24.8065C118 11.1282 106.872 0 93.1935 0C88.4984 0 83.9273 1.31828 79.974 3.81218C79.1667 4.32152 78.9249 5.38905 79.4345 6.19638C79.9436 7.00395 81.0114 7.24525 81.8187 6.73614C85.219 4.59094 89.1522 3.45703 93.1935 3.45703C104.966 3.45703 114.543 13.0344 114.543 24.8065C114.543 36.5786 104.966 46.156 93.1935 46.156C81.4214 46.156 71.8438 36.5786 71.8438 24.8065C71.8438 19.9275 73.532 15.1572 76.5974 11.3748C77.1983 10.6331 77.0844 9.54463 76.3428 8.94357C75.6009 8.34205 74.5126 8.45682 73.9116 9.19801C72.3126 11.1713 71.039 13.3766 70.1176 15.7196H4.71101C2.1134 15.7198 0 17.8332 0 20.4308V65.0132C0 65.9678 0.773684 66.7417 1.72852 66.7417C2.68335 66.7417 3.45703 65.9678 3.45703 65.0132V20.4308C3.45703 19.7394 4.01961 19.1768 4.71101 19.1768H37.1716V38.7434C37.1716 39.6883 37.6498 40.5512 38.4512 41.0522C39.2525 41.5531 40.238 41.6049 41.0873 41.191L50.8536 36.4313C51.0352 36.3426 51.2443 36.3426 51.4263 36.4313L61.1929 41.1912C61.5734 41.3767 61.9811 41.4685 62.3874 41.4685C62.8882 41.4685 63.3867 41.3288 63.829 41.0522C64.6304 40.5514 65.1086 39.6883 65.1086 38.7434V34.4318C65.1086 33.4772 64.3349 32.7033 63.3801 32.7033C62.4252 32.7033 61.6515 33.4772 61.6515 34.4318V37.5687L52.9412 33.3237C51.7962 32.7657 50.4835 32.766 49.339 33.3237L40.6286 37.5687V19.1768H61.6515V25.5498C61.6515 26.5044 62.4252 27.2783 63.3801 27.2783C64.3349 27.2783 65.1086 26.5044 65.1086 25.5498V19.1768H69.0422C68.6133 21.0139 68.3868 22.9024 68.3868 24.8065C68.3868 38.4848 79.5149 49.613 93.1935 49.613C95.1292 49.613 97.0137 49.3897 98.8232 48.9684V113.289C98.8232 113.98 98.2606 114.543 97.5692 114.543H4.71101C4.01961 114.543 3.45703 113.98 3.45703 113.289V72.5465C3.45703 71.5919 2.68335 70.818 1.72852 70.818C0.773684 70.818 0 71.5919 0 72.5465V113.289C0 115.887 2.1134 118 4.71101 118H97.5689C100.167 118 102.28 115.887 102.28 113.289V47.8898C111.477 44.2569 118 35.2792 118 24.8065Z" fill="#555555"/>
<path d="M83.1851 31.467V35.3825C82.3976 35.5438 81.8053 36.2405 81.8053 37.0757C81.8053 38.0303 82.579 38.8042 83.5338 38.8042H84.9136H101.473H102.853C103.808 38.8042 104.582 38.0303 104.582 37.0757C104.582 36.2405 103.989 35.5436 103.202 35.3825V31.467C103.202 28.5463 101.917 25.8106 99.7812 23.9372C101.917 22.0637 103.202 19.328 103.202 16.4073V12.4921C103.989 12.3308 104.582 11.634 104.582 10.7988C104.582 9.84423 103.808 9.07031 102.853 9.07031H101.473H84.9136H83.5338C82.579 9.07031 81.8053 9.84423 81.8053 10.7988C81.8053 11.634 82.3976 12.331 83.1851 12.4921V16.4075C83.1851 19.3282 84.4702 22.0637 86.6057 23.9374C84.4702 25.8109 83.1851 28.5463 83.1851 31.467ZM86.6421 35.3474V31.467C86.6421 29.0296 88.0125 26.7913 90.1586 25.6657H96.2285C98.3746 26.7913 99.745 29.0296 99.745 31.467V35.3474H86.6421ZM99.7448 12.5273V16.4075C99.7448 18.845 98.3744 21.0833 96.2283 22.2089H90.1584C88.0123 21.0833 86.6419 18.845 86.6419 16.4075V12.5273H99.7448Z" fill="#555555"/>
</svg>
